<svg xmlns="http://www.w3.org/2000/svg" viewBox="0 0 842 465" width="842" height="465" preserveAspectRatio="xMidYMid meet" style="width: 100%; height: 100%; transform: translate3d(0px, 0px, 0px);"><defs><clipPath id="__lottie_element_2"><rect width="842" height="465" x="0" y="0"></rect></clipPath><mask id="__lottie_element_4"><path fill="#ffffff" clip-rule="nonzero" d="M0,0  h842 v465 h-842 v-465  M0.5360000133514404,-0.008999999612569809 C0.4440000057220459,-0.008999999612569809 0.36899998784065247,0.15700000524520874 0.36899998784065247,0.3630000054836273 C0.36899998784065247,0.5690000057220459 0.4440000057220459,0.7360000014305115 0.5360000133514404,0.7360000014305115 C0.628000020980835,0.7360000014305115 0.703000009059906,0.5690000057220459 0.703000009059906,0.3630000054836273 C0.703000009059906,0.15700000524520874 0.628000020980835,-0.008999999612569809 0.5360000133514404,-0.008999999612569809" fill-opacity="1"></path></mask><mask id="__lottie_element_7"><path fill="#ffffff" clip-rule="nonzero" d="M0,0  h842 v465 h-842 v-465  M0.5360000133514404,-0.008999999612569809 C0.4440000057220459,-0.008999999612569809 0.36899998784065247,0.15700000524520874 0.36899998784065247,0.3630000054836273 C0.36899998784065247,0.5690000057220459 0.4440000057220459,0.7360000014305115 0.5360000133514404,0.7360000014305115 C0.628000020980835,0.7360000014305115 0.703000009059906,0.5690000057220459 0.703000009059906,0.3630000054836273 C0.703000009059906,0.15700000524520874 0.628000020980835,-0.008999999612569809 0.5360000133514404,-0.008999999612569809" fill-opacity="1"></path></mask></defs><g clip-path="url(#__lottie_element_2)"><g mask="url(#__lottie_element_7)" transform="matrix(0.39182379841804504,0.9200402498245239,-0.9200402498245239,0.39182379841804504,402.9999084472656,-206.000732421875)" opacity="1" style="display: block;"><g opacity="1" transform="matrix(1,0,0,1,512.7730102539062,72.91100311279297)"><path fill="rgb(253,254,254)" fill-opacity="1" d=" M6.928999900817871,15.635000228881836 C3.813999891281128,4.381999969482422 -0.8230000138282776,-6.021999835968018 -6.928999900817871,-15.635000228881836 C-6.928999900817871,-15.635000228881836 6.928999900817871,15.635000228881836 6.928999900817871,15.635000228881836z"></path></g><g opacity="1" transform="matrix(1,0,0,1,402.677001953125,122.22699737548828)"><path fill="rgb(253,254,254)" fill-opacity="1" d=" M117.02400207519531,-33.680999755859375 C113.90899658203125,-44.933998107910156 109.27200317382812,-55.3390007019043 103.16600036621094,-64.9520034790039 C103.16600036621094,-64.9520034790039 98.30000305175781,-72.0270004272461 98.30000305175781,-72.0270004272461 C92.5009994506836,-79.78099822998047 85.61100006103516,-86.98100280761719 77.66300201416016,-93.58599853515625 C68.68399810791016,-101.0270004272461 59.2869987487793,-107 49.43199920654297,-111.52999877929688 C34.29499816894531,-118.47799682617188 18.1200008392334,-121.97699737548828 0.9390000104904175,-121.97699737548828 C-3.115999937057495,-121.97699737548828 -7.214000225067139,-121.77400207519531 -11.380000114440918,-121.4020004272461 C-44.70500183105469,-118.31700134277344 -72.2020034790039,-103.75399780273438 -93.81400299072266,-77.6989974975586 C-115.31600189208984,-51.82600021362305 -124.50299835205078,-22.15999984741211 -121.40399932861328,11.336000442504883 C-118.302001953125,44.814998626708984 -103.81999969482422,72.31400299072266 -77.94499969482422,93.79100036621094 C-55.3390007019043,112.56800079345703 -29.990999221801758,121.97699737548828 -1.9210000038146973,121.97699737548828 C-0.46299999952316284,121.97699737548828 1.0089999437332153,121.89299774169922 2.4790000915527344,121.85800170898438 C-31.218000411987305,57.72200012207031 -49.50199890136719,4.890999794006348 -2.7039999961853027,-39.486000061035156 C-2.7039999961853027,-39.486000061035156 -43.66899871826172,-49.323001861572266 -43.66899871826172,-49.323001861572266 C-43.66899871826172,-49.323001861572266 51.52199935913086,-85.29199981689453 51.52199935913086,-85.29199981689453 C51.52199935913086,-85.29199981689453 36.266998291015625,7.913000106811523 36.266998291015625,7.913000106811523 C36.266998291015625,7.913000106811523 17.510000228881836,-25.29400062561035 17.510000228881836,-25.29400062561035 C-39.49100112915039,41.54100036621094 56.96699905395508,107.74400329589844 60.69900131225586,105.56199645996094 C73.21800231933594,98.22200012207031 84.55500030517578,88.46199798583984 94.70800018310547,76.24099731445312 C115.7020034790039,50.97100067138672 124.50299835205078,21.663000106811523 121.13400268554688,-11.656000137329102 C120.36699676513672,-19.333999633789062 118.96600341796875,-26.66200065612793 117.02400207519531,-33.680999755859375z"></path></g></g><g mask="url(#__lottie_element_4)" transform="matrix(1,0,0,1,45.69500732421875,90.07099914550781)" opacity="1" style="display: block;"><g opacity="1" transform="matrix(1,0,0,1,395.5639953613281,174.031005859375)"><path fill="rgb(253,254,254)" fill-opacity="1" d=" M-0.1940000057220459,-0.16500000655651093 C-0.0560000017285347,-0.06700000166893005 0.0560000017285347,0.052000001072883606 0.1940000057220459,0.16500000655651093 C0.1940000057220459,0.16500000655651093 -0.1940000057220459,-0.12999999523162842 -0.1940000057220459,-0.12999999523162842 C-0.1940000057220459,-0.12999999523162842 -0.1940000057220459,-0.16500000655651093 -0.1940000057220459,-0.16500000655651093z"></path></g><g opacity="1" transform="matrix(1,0,0,1,80.83200073242188,117.95500183105469)"><path fill="rgb(253,254,254)" fill-opacity="1" d=" M48.72200012207031,48.46799850463867 C48.72200012207031,48.46799850463867 14.126999855041504,48.46799850463867 14.126999855041504,48.46799850463867 C3.9179999828338623,48.46799850463867 -3.3310000896453857,47.12099838256836 -6.77400016784668,43.53900146484375 C-10.230999946594238,39.97700119018555 -12.380999565124512,33.24599838256836 -12.380999565124512,22.475000381469727 C-12.380999565124512,22.475000381469727 -12.380999565124512,-116.6760025024414 -12.380999565124512,-116.6760025024414 C-12.380999565124512,-116.6760025024414 -80.58200073242188,-116.6760025024414 -80.58200073242188,-116.6760025024414 C-80.58200073242188,-116.6760025024414 -80.58200073242188,33.547000885009766 -80.58200073242188,33.547000885009766 C-80.58200073242188,59.61600112915039 -73.5530014038086,79.97100067138672 -59.494998931884766,94.66100311279297 C-45.446998596191406,109.3280029296875 -25.841999053955078,116.6760025024414 -0.6779999732971191,116.6760025024414 C-0.6779999732971191,116.6760025024414 80.58200073242188,116.6760025024414 80.58200073242188,116.6760025024414 C78.46900177001953,115.11299896240234 76.40399932861328,113.03800201416016 74.45099639892578,111.2699966430664 C57.88600158691406,96.3010025024414 49.45899963378906,77.19400024414062 48.72200012207031,48.46799850463867z"></path></g><g opacity="1" transform="matrix(1,0,0,1,80.83200073242188,117.95600128173828)"><path fill="rgb(253,254,254)" fill-opacity="1" d=" M80.58200073242188,116.67500305175781 C78.46900177001953,115.11299896240234 76.40299987792969,113.03700256347656 74.44999694824219,111.2699966430664 C57.88600158691406,96.3010025024414 49.45899963378906,77.19400024414062 48.72200012207031,48.46699905395508 C48.72200012207031,48.46699905395508 14.126999855041504,48.46699905395508 14.126999855041504,48.46699905395508 C3.9179999828338623,48.46699905395508 -3.3310000896453857,47.119998931884766 -6.77400016784668,43.53799819946289 C-10.230999946594238,39.97600173950195 -12.380999565124512,33.244998931884766 -12.380999565124512,22.475000381469727 C-12.380999565124512,22.475000381469727 -12.380999565124512,-116.67500305175781 -12.380999565124512,-116.67500305175781 C-12.380999565124512,-116.67500305175781 -80.58200073242188,-116.67500305175781 -80.58200073242188,-116.67500305175781 C-80.58200073242188,-116.67500305175781 -80.58200073242188,33.54600143432617 -80.58200073242188,33.54600143432617 C-80.58200073242188,59.61600112915039 -73.55400085449219,79.97000122070312 -59.494998931884766,94.66000366210938 C-45.446998596191406,109.3270034790039 -25.843000411987305,116.67500305175781 -0.6790000200271606,116.67500305175781 C-0.6790000200271606,116.67500305175781 80.58200073242188,116.67500305175781 80.58200073242188,116.67500305175781z"></path></g><g opacity="1" transform="matrix(1,0,0,1,235.1929931640625,121.70999908447266)"><path fill="rgb(253,254,254)" fill-opacity="1" d=" M95.09500122070312,116.6760025024414 C95.09500122070312,116.6760025024414 -17.073999404907227,116.6760025024414 -17.073999404907227,116.6760025024414 C-41.86000061035156,116.6760025024414 -60.57899856567383,110.44300079345703 -73.99700164794922,98.94499969482422 C-73.99700164794922,98.94499969482422 -73.99700164794922,98.71299743652344 -73.99700164794922,98.71299743652344 C-74.38400268554688,98.39099884033203 -74.8239974975586,98.29900360107422 -75.21399688720703,97.95500183105469 C-87.94000244140625,86.44999694824219 -94.2770004272461,70.0009994506836 -94.95800018310547,48.46799850463867 C-95.00299835205078,48.46799850463867 -95.09400177001953,46.882999420166016 -95.09400177001953,45.606998443603516 C-95.09400177001953,45.606998443603516 -95.09400177001953,-45.361000061035156 -95.09400177001953,-45.361000061035156 C-95.09400177001953,-67.5739974975586 -89.06500244140625,-85.4469985961914 -76.31800079345703,-97.68900299072266 C-63.56700134277344,-109.91600036621094 -45.981998443603516,-116.6760025024414 -22.861000061035156,-116.6760025024414 C-22.861000061035156,-116.6760025024414 91.46600341796875,-116.6760025024414 91.46600341796875,-116.6760025024414 C89.6510009765625,-116.6760025024414 87.85900115966797,-113.0999984741211 86.08699798583984,-111.63500213623047 C65.20899963378906,-94.28800201416016 50.553001403808594,-73.58999633789062 42.262001037597656,-48.459999084472656 C42.262001037597656,-48.459999084472656 -6.875999927520752,-48.459999084472656 -6.875999927520752,-48.459999084472656 C-18.77400016784668,-48.459999084472656 -24.733999252319336,-44.76499938964844 -24.733999252319336,-37.04499816894531 C-24.733999252319336,-32.51599884033203 -23.320999145507812,-28.547000885009766 -20.474000930786133,-26.80299949645996 C-17.64900016784668,-25.027999877929688 -12.593999862670898,-23.344999313354492 -5.3460001945495605,-23.344999313354492 C-5.3460001945495605,-23.344999313354492 36.40299987792969,-23.344999313354492 36.40299987792969,-23.344999313354492 C35.80500030517578,-19.733999252319336 35.29999923706055,-16.76099967956543 34.957000732421875,-13.017000198364258 C33.645999908447266,1.062000036239624 34.244998931884766,12.5600004196167 36.678001403808594,26.92799949645996 C36.678001403808594,26.92799949645996 -12.319999694824219,26.92799949645996 -12.319999694824219,26.92799949645996 C-18.44099998474121,26.92799949645996 -22.770000457763672,27.642000198364258 -25.31800079345703,29.466999053955078 C-27.871000289916992,31.26799964904785 -29.159000396728516,34.255001068115234 -29.159000396728516,38.553001403808594 C-29.159000396728516,43.42599868774414 -27.844999313354492,47.43000030517578 -25.253000259399414,48.95800018310547 C-22.634000778198242,50.500999450683594 -17.304000854492188,52.05699920654297 -9.26099967956543,52.05699920654297 C-9.26099967956543,52.05699920654297 43.45500183105469,52.05699920654297 43.45500183105469,52.05699920654297 C48.98099899291992,62.82099914550781 56.9379997253418,78.94000244140625 67.41300201416016,91.5260009765625 C75.822998046875,101.66500091552734 85.0790023803711,109.46800231933594 95.09500122070312,116.6760025024414z"></path></g><g opacity="1" transform="matrix(1,0,0,1,395.5639953613281,174.031005859375)"><path fill="rgb(253,254,254)" fill-opacity="1" d=" M-0.1940000057220459,-0.12999999523162842 C-0.1940000057220459,-0.12999999523162842 0.1940000057220459,0.16500000655651093 0.1940000057220459,0.16500000655651093 C0.0560000017285347,0.05299999937415123 -0.0560000017285347,-0.06700000166893005 -0.1940000057220459,-0.16500000655651093 C-0.1940000057220459,-0.16500000655651093 -0.1940000057220459,-0.12999999523162842 -0.1940000057220459,-0.12999999523162842z"></path></g><g opacity="1" transform="matrix(1,0,0,1,38.66899871826172,294.10101318359375)"><path fill="rgb(253,254,254)" fill-opacity="1" d=" M16.38599967956543,-17.260000228881836 C15.850000381469727,-17.700000762939453 15.236000061035156,-18.038000106811523 14.543999671936035,-18.275999069213867 C13.85099983215332,-18.51099967956543 13.126999855041504,-18.628999710083008 12.371999740600586,-18.628999710083008 C10.954999923706055,-18.628999710083008 9.75100040435791,-18.250999450683594 8.760000228881836,-17.496000289916992 C7.76800012588501,-16.739999771118164 7.083000183105469,-15.701000213623047 6.704999923706055,-14.378999710083008 C6.704999923706055,-14.378999710083008 0,9.420999526977539 0,9.420999526977539 C0,9.420999526977539 -6.704999923706055,-14.378999710083008 -6.704999923706055,-14.378999710083008 C-7.084000110626221,-15.701000213623047 -7.767000198364258,-16.739999771118164 -8.760000228881836,-17.496000289916992 C-9.751999855041504,-18.250999450683594 -10.956000328063965,-18.628999710083008 -12.371999740600586,-18.628999710083008 C-13.095999717712402,-18.628999710083008 -13.803999900817871,-18.51099967956543 -14.496999740600586,-18.275999069213867 C-15.189000129699707,-18.038000106811523 -15.803000450134277,-17.700000762939453 -16.339000701904297,-17.260000228881836 C-16.874000549316406,-16.819000244140625 -17.305999755859375,-16.298999786376953 -17.636999130249023,-15.701000213623047 C-17.968000411987305,-15.102999687194824 -18.132999420166016,-14.425999641418457 -18.132999420166016,-13.670999526977539 C-18.132999420166016,-13.670999526977539 -18.132999420166016,15.227999687194824 -18.132999420166016,15.227999687194824 C-18.132999420166016,16.142000198364258 -17.795000076293945,16.937000274658203 -17.118000030517578,17.613000869750977 C-16.44099998474121,18.291000366210938 -15.645999908447266,18.628999710083008 -14.732999801635742,18.628999710083008 C-13.788999557495117,18.628999710083008 -12.977999687194824,18.291000366210938 -12.300999641418457,17.613000869750977 C-11.625,16.937000274658203 -11.28600025177002,16.142000198364258 -11.28600025177002,15.227999687194824 C-11.28600025177002,15.227999687194824 -11.28600025177002,-9.326000213623047 -11.28600025177002,-9.326000213623047 C-11.28600025177002,-9.326000213623047 -4.438000202178955,15.227999687194824 -4.438000202178955,15.227999687194824 C-4.15500020980835,16.267000198364258 -3.621000051498413,17.0939998626709 -2.8340001106262207,17.70800018310547 C-2.046999931335449,18.32200050354004 -1.1019999980926514,18.628999710083008 0,18.628999710083008 C1.1019999980926514,18.628999710083008 2.053999900817871,18.32200050354004 2.8570001125335693,17.70800018310547 C3.6589999198913574,17.0939998626709 4.202000141143799,16.267000198364258 4.486000061035156,15.227999687194824 C4.486000061035156,15.227999687194824 11.333000183105469,-9.326000213623047 11.333000183105469,-9.326000213623047 C11.333000183105469,-9.326000213623047 11.333000183105469,15.227999687194824 11.333000183105469,15.227999687194824 C11.333000183105469,16.142000198364258 11.663000106811523,16.937000274658203 12.324000358581543,17.613000869750977 C12.986000061035156,18.291000366210938 13.788000106811523,18.628999710083008 14.732999801635742,18.628999710083008 C15.678000450134277,18.628999710083008 16.481000900268555,18.291000366210938 17.141000747680664,17.613000869750977 C17.802000045776367,16.937000274658203 18.132999420166016,16.142000198364258 18.132999420166016,15.227999687194824 C18.132999420166016,15.227999687194824 18.132999420166016,-13.670999526977539 18.132999420166016,-13.670999526977539 C18.132999420166016,-14.425999641418457 17.975000381469727,-15.102999687194824 17.65999984741211,-15.701000213623047 C17.34600067138672,-16.298999786376953 16.92099952697754,-16.819000244140625 16.38599967956543,-17.260000228881836z"></path></g><g opacity="1" transform="matrix(1,0,0,1,74.55599975585938,294.1000061035156)"><path fill="rgb(253,254,254)" fill-opacity="1" d=" M10.342000007629395,-12.442999839782715 C11.192999839782715,-12.442999839782715 11.916000366210938,-12.741999626159668 12.513999938964844,-13.33899974822998 C13.112000465393066,-13.937000274658203 13.40999984741211,-14.677000045776367 13.40999984741211,-15.559000015258789 C13.40999984741211,-16.409000396728516 13.112000465393066,-17.132999420166016 12.513999938964844,-17.731000900268555 C11.916000366210938,-18.32900047302246 11.192999839782715,-18.628999710083008 10.342000007629395,-18.628999710083008 C10.342000007629395,-18.628999710083008 -9.680000305175781,-18.628999710083008 -9.680000305175781,-18.628999710083008 C-10.435999870300293,-18.628999710083008 -11.057999610900879,-18.4950008392334 -11.545999526977539,-18.226999282836914 C-12.034000396728516,-17.959999084472656 -12.418999671936035,-17.628999710083008 -12.70199966430664,-17.236000061035156 C-12.984999656677246,-16.840999603271484 -13.173999786376953,-16.43199920654297 -13.267999649047852,-16.006999969482422 C-13.36299991607666,-15.583000183105469 -13.41100025177002,-15.227999687194824 -13.41100025177002,-14.944999694824219 C-13.41100025177002,-14.944999694824219 -13.41100025177002,14.89900016784668 -13.41100025177002,14.89900016784668 C-13.41100025177002,15.5600004196167 -13.300999641418457,16.125999450683594 -13.081000328063965,16.597999572753906 C-12.859999656677246,17.070999145507812 -12.567999839782715,17.45599937438965 -12.206000328063965,17.7549991607666 C-11.845000267028809,18.05500030517578 -11.444000244140625,18.274999618530273 -11.003000259399414,18.416000366210938 C-10.562000274658203,18.558000564575195 -10.121999740600586,18.628999710083008 -9.680000305175781,18.628999710083008 C-9.680000305175781,18.628999710083008 10.342000007629395,18.628999710083008 10.342000007629395,18.628999710083008 C11.192999839782715,18.628999710083008 11.916000366210938,18.329999923706055 12.513999938964844,17.73200035095215 C13.112000465393066,17.134000778198242 13.40999984741211,16.393999099731445 13.40999984741211,15.51200008392334 C13.40999984741211,14.661999702453613 13.112000465393066,13.939000129699707 12.513999938964844,13.34000015258789 C11.916000366210938,12.743000030517578 11.192999839782715,12.442999839782715 10.342000007629395,12.442999839782715 C10.342000007629395,12.442999839782715 -6.185999870300293,12.442999839782715 -6.185999870300293,12.442999839782715 C-6.185999870300293,12.442999839782715 -6.185999870300293,1.8660000562667847 -6.185999870300293,1.8660000562667847 C-6.185999870300293,1.8660000562667847 7.697000026702881,1.8660000562667847 7.697000026702881,1.8660000562667847 C8.57800006866455,1.8660000562667847 9.319000244140625,1.559000015258789 9.916999816894531,0.9449999928474426 C10.515000343322754,0.33000001311302185 10.814000129699707,-0.4009999930858612 10.814000129699707,-1.2519999742507935 C10.814000129699707,-2.1010000705718994 10.515000343322754,-2.8329999446868896 9.916999816894531,-3.447000026702881 C9.319000244140625,-4.059999942779541 8.57800006866455,-4.368000030517578 7.697000026702881,-4.368000030517578 C7.697000026702881,-4.368000030517578 -6.185999870300293,-4.368000030517578 -6.185999870300293,-4.368000030517578 C-6.185999870300293,-4.368000030517578 -6.185999870300293,-12.442999839782715 -6.185999870300293,-12.442999839782715 C-6.185999870300293,-12.442999839782715 10.342000007629395,-12.442999839782715 10.342000007629395,-12.442999839782715z"></path></g><g opacity="1" transform="matrix(1,0,0,1,106.5,294.10101318359375)"><path fill="rgb(253,254,254)" fill-opacity="1" d=" M11.711999893188477,-12.75 C10.49899959564209,-14.496999740600586 9.003999710083008,-15.913000106811523 7.22599983215332,-16.999000549316406 C5.447999954223633,-18.086000442504883 3.424999952316284,-18.628999710083008 1.1579999923706055,-18.628999710083008 C1.1579999923706055,-18.628999710083008 -11.687000274658203,-18.628999710083008 -11.687000274658203,-18.628999710083008 C-12.442999839782715,-18.628999710083008 -13.064000129699707,-18.4950008392334 -13.552000045776367,-18.22800064086914 C-14.041000366210938,-17.959999084472656 -14.425000190734863,-17.628999710083008 -14.708999633789062,-17.23699951171875 C-14.993000030517578,-16.841999053955078 -15.180999755859375,-16.433000564575195 -15.276000022888184,-16.007999420166016 C-15.371000289916992,-15.583000183105469 -15.418000221252441,-15.229000091552734 -15.418000221252441,-14.946000099182129 C-15.418000221252441,-14.946000099182129 -15.418000221252441,14.89799976348877 -15.418000221252441,14.89799976348877 C-15.418000221252441,15.559000015258789 -15.307000160217285,16.125999450683594 -15.088000297546387,16.597000122070312 C-14.866999626159668,17.06999969482422 -14.576000213623047,17.45599937438965 -14.21399974822998,17.7549991607666 C-13.85200023651123,18.054000854492188 -13.449999809265137,18.27400016784668 -13.008999824523926,18.416000366210938 C-12.569000244140625,18.55699920654297 -12.128999710083008,18.628999710083008 -11.687000274658203,18.628999710083008 C-11.687000274658203,18.628999710083008 1.1579999923706055,18.628999710083008 1.1579999923706055,18.628999710083008 C3.4549999237060547,18.628999710083008 5.486999988555908,18.086000442504883 7.249000072479248,17 C9.01200008392334,15.913999557495117 10.49899959564209,14.48900032043457 11.711999893188477,12.725000381469727 C12.92300033569336,10.963000297546387 13.843999862670898,8.970999717712402 14.473999977111816,6.752999782562256 C15.104000091552734,4.5329999923706055 15.418000221252441,2.2739999294281006 15.418000221252441,-0.024000000208616257 C15.418000221252441,-2.2899999618530273 15.104000091552734,-4.540999889373779 14.473999977111816,-6.7769999504089355 C13.843999862670898,-9.01099967956543 12.92300033569336,-11.003000259399414 11.711999893188477,-12.75z M7.7220001220703125,4.5329999923706055 C7.4070000648498535,6.0279998779296875 6.870999813079834,7.357999801635742 6.117000102996826,8.52299976348877 C5.361000061035156,9.687999725341797 4.361000061035156,10.625 3.118000030517578,11.333000183105469 C1.8739999532699585,12.041999816894531 0.3230000138282776,12.395000457763672 -1.534999966621399,12.395000457763672 C-1.534999966621399,12.395000457763672 -8.192999839782715,12.395000457763672 -8.192999839782715,12.395000457763672 C-8.192999839782715,12.395000457763672 -8.192999839782715,-12.444000244140625 -8.192999839782715,-12.444000244140625 C-8.192999839782715,-12.444000244140625 -1.534999966621399,-12.444000244140625 -1.534999966621399,-12.444000244140625 C0.3230000138282776,-12.444000244140625 1.8739999532699585,-12.079999923706055 3.118000030517578,-11.357999801635742 C4.361000061035156,-10.631999969482422 5.361000061035156,-9.687999725341797 6.117000102996826,-8.52400016784668 C6.870999813079834,-7.359000205993652 7.4070000648498535,-6.035999774932861 7.7220001220703125,-4.557000160217285 C8.03600025177002,-3.0769999027252197 8.192999839782715,-1.565999984741211 8.192999839782715,-0.024000000208616257 C8.192999839782715,1.5180000066757202 8.03600025177002,3.0380001068115234 7.7220001220703125,4.5329999923706055z"></path></g><g opacity="1" transform="matrix(1,0,0,1,128.6479949951172,294.10101318359375)"><path fill="rgb(253,254,254)" fill-opacity="1" d=" M-0.023000000044703484,-18.628999710083008 C-1.031999945640564,-18.628999710083008 -1.8819999694824219,-18.281999588012695 -2.575000047683716,-17.59000015258789 C-3.2669999599456787,-16.898000717163086 -3.61299991607666,-16.04800033569336 -3.61299991607666,-15.039999961853027 C-3.61299991607666,-15.039999961853027 -3.61299991607666,15.039999961853027 -3.61299991607666,15.039999961853027 C-3.61299991607666,16.04800033569336 -3.2669999599456787,16.89699935913086 -2.575000047683716,17.59000015258789 C-1.8819999694824219,18.283000946044922 -1.031999945640564,18.628999710083008 -0.023000000044703484,18.628999710083008 C0.984000027179718,18.628999710083008 1.840000033378601,18.283000946044922 2.5490000247955322,17.59000015258789 C3.256999969482422,16.89699935913086 3.611999988555908,16.04800033569336 3.611999988555908,15.039999961853027 C3.611999988555908,15.039999961853027 3.611999988555908,-15.039999961853027 3.611999988555908,-15.039999961853027 C3.611999988555908,-16.04800033569336 3.256999969482422,-16.898000717163086 2.5490000247955322,-17.59000015258789 C1.840000033378601,-18.281999588012695 0.984000027179718,-18.628999710083008 -0.023000000044703484,-18.628999710083008z"></path></g><g opacity="1" transform="matrix(1,0,0,1,150.17999267578125,293.7699890136719)"><path fill="rgb(253,254,254)" fill-opacity="1" d=" M5.171000003814697,-14.236000061035156 C4.951000213623047,-14.866000175476074 4.681000232696533,-15.472000122070312 4.368000030517578,-16.05500030517578 C4.052000045776367,-16.636999130249023 3.681999921798706,-17.141000747680664 3.256999969482422,-17.565000534057617 C2.8329999446868896,-17.989999771118164 2.3519999980926514,-18.32900047302246 1.8179999589920044,-18.58099937438965 C1.281999945640564,-18.83300018310547 0.6840000152587891,-18.958999633789062 0.023000000044703484,-18.958999633789062 C-0.6700000166893005,-18.958999633789062 -1.2829999923706055,-18.83300018310547 -1.8179999589920044,-18.58099937438965 C-2.3529999256134033,-18.32900047302246 -2.8269999027252197,-17.989999771118164 -3.2360000610351562,-17.565000534057617 C-3.6449999809265137,-17.141000747680664 -4.00600004196167,-16.636999130249023 -4.320000171661377,-16.05500030517578 C-4.635000228881836,-15.472000122070312 -4.9039998054504395,-14.866000175476074 -5.124000072479248,-14.236000061035156 C-5.124000072479248,-14.236000061035156 -14.946999549865723,14.001999855041504 -14.946999549865723,14.001999855041504 C-15.104000091552734,14.473999977111816 -15.182000160217285,14.914999961853027 -15.182000160217285,15.324000358581543 C-15.182000160217285,16.268999099731445 -14.859999656677246,17.110000610351562 -14.21399974822998,17.850000381469727 C-13.569000244140625,18.59000015258789 -12.694999694824219,18.959999084472656 -11.592000007629395,18.959999084472656 C-10.836000442504883,18.959999084472656 -10.137999534606934,18.739999771118164 -9.491999626159668,18.298999786376953 C-8.847000122070312,17.857999801635742 -8.39900016784668,17.260000228881836 -8.145999908447266,16.503999710083008 C-8.145999908447266,16.503999710083008 -5.453999996185303,7.484000205993652 -5.453999996185303,7.484000205993652 C-5.453999996185303,7.484000205993652 5.500999927520752,7.484000205993652 5.500999927520752,7.484000205993652 C5.500999927520752,7.484000205993652 8.192999839782715,16.503999710083008 8.192999839782715,16.503999710083008 C8.444999694824219,17.260000228881836 8.892000198364258,17.857999801635742 9.538000106811523,18.298999786376953 C10.182999610900879,18.739999771118164 10.883000373840332,18.959999084472656 11.638999938964844,18.959999084472656 C12.267999649047852,18.959999084472656 12.803000450134277,18.840999603271484 13.244999885559082,18.604999542236328 C13.6850004196167,18.368000030517578 14.04699993133545,18.077999114990234 14.331000328063965,17.73200035095215 C14.614999771118164,17.38599967956543 14.82699966430664,16.992000579833984 14.968000411987305,16.552000045776367 C15.109999656677246,16.111000061035156 15.182000160217285,15.701000213623047 15.182000160217285,15.324000358581543 C15.182000160217285,14.914999961853027 15.10200023651123,14.473999977111816 14.944999694824219,14.001999855041504 C14.944999694824219,14.001999855041504 5.171000003814697,-14.236000061035156 5.171000003814697,-14.236000061035156z M-3.8480000495910645,1.9600000381469727 C-3.8480000495910645,1.9600000381469727 0.023000000044703484,-11.072999954223633 0.023000000044703484,-11.072999954223633 C0.023000000044703484,-11.072999954223633 3.8480000495910645,1.9600000381469727 3.8480000495910645,1.9600000381469727 C3.8480000495910645,1.9600000381469727 -3.8480000495910645,1.9600000381469727 -3.8480000495910645,1.9600000381469727z"></path></g><g opacity="1" transform="matrix(1,0,0,1,196.0540008544922,294.6679992675781)"><path fill="rgb(253,254,254)" fill-opacity="1" d=" M15.885000228881836,12.572999954223633 C15.11299991607666,12.572999954223633 14.289999961853027,12.343999862670898 13.418000221252441,11.881999969482422 C12.545000076293945,11.420999526977539 11.697999954223633,10.76200008392334 10.875,9.906000137329102 C11.932999610900879,8.8149995803833 12.902000427246094,7.640999794006348 13.782999992370605,6.381999969482422 C14.664999961853027,5.123000144958496 15.414999961853027,3.7890000343322754 16.035999298095703,2.378999948501587 C16.656999588012695,0.9700000286102295 17.138999938964844,-0.5070000290870667 17.483999252319336,-2.052000045776367 C17.827999114990234,-3.5959999561309814 17.999000549316406,-5.182000160217285 17.999000549316406,-6.809999942779541 C17.999000549316406,-7.497000217437744 17.957000732421875,-8.095000267028809 17.87299919128418,-8.597999572753906 C17.790000915527344,-9.10200023651123 17.655000686645508,-9.621000289916992 17.47100067138672,-10.157999992370605 C17.47100067138672,-10.157999992370605 10.699999809265137,-10.157999992370605 10.699999809265137,-10.157999992370605 C10.866999626159668,-9.654999732971191 10.98900032043457,-9.109000205993652 11.064000129699707,-8.520999908447266 C11.140000343322754,-7.934999942779541 11.177000045776367,-7.322000026702881 11.177000045776367,-6.684999942779541 C11.177000045776367,-4.570000171661377 10.878999710083008,-2.5339999198913574 10.284000396728516,-0.5789999961853027 C9.687999725341797,1.3769999742507935 8.70199966430664,3.2179999351501465 7.326000213623047,4.945000171661377 C6.671000003814697,3.9549999237060547 6.007999897003174,3.0789999961853027 5.336999893188477,2.315000057220459 C4.664999961853027,1.5520000457763672 3.9779999256134033,0.8679999709129333 3.2730000019073486,0.2639999985694885 C2.568000078201294,-0.3409999907016754 1.8459999561309814,-0.878000020980835 1.1080000400543213,-1.3480000495910645 C0.36899998784065247,-1.8170000314712524 -0.40299999713897705,-2.234999895095825 -1.2079999446868896,-2.6050000190734863 C0.8230000138282776,-3.4609999656677246 2.3959999084472656,-4.572000026702881 3.51200008392334,-5.940999984741211 C4.627999782562256,-7.309000015258789 5.185999870300293,-8.925000190734863 5.185999870300293,-10.788000106811523 C5.185999870300293,-11.944999694824219 4.934000015258789,-13.006999969482422 4.431000232696533,-13.972999572753906 C3.927000045776367,-14.937000274658203 3.2130000591278076,-15.763999938964844 2.2909998893737793,-16.45199966430664 C1.3680000305175781,-17.139999389648438 0.26499998569488525,-17.677000045776367 -1.0190000534057617,-18.062999725341797 C-2.302999973297119,-18.448999404907227 -3.7170000076293945,-18.642000198364258 -5.261000156402588,-18.642000198364258 C-6.873000144958496,-18.642000198364258 -8.348999977111816,-18.45599937438965 -9.692000389099121,-18.086999893188477 C-11.03499984741211,-17.718000411987305 -12.187999725341797,-17.18199920654297 -13.152999877929688,-16.47800064086914 C-14.119000434875488,-15.772000312805176 -14.869000434875488,-14.906000137329102 -15.406000137329102,-13.883000373840332 C-15.942999839782715,-12.859000205993652 -16.211000442504883,-11.685999870300293 -16.211000442504883,-10.359000205993652 C-16.211000442504883,-9.536999702453613 -16.082000732421875,-8.755999565124512 -15.821999549865723,-8.017999649047852 C-15.562000274658203,-7.2789998054504395 -15.220999717712402,-6.5960001945495605 -14.800999641418457,-5.966000080108643 C-14.381999969482422,-5.336999893188477 -13.907999992370605,-4.758999824523926 -13.378999710083008,-4.229000091552734 C-12.85099983215332,-3.7009999752044678 -12.32699966430664,-3.234999895095825 -11.805999755859375,-2.8329999446868896 C-12.880000114440918,-2.430000066757202 -13.937999725341797,-1.9270000457763672 -14.977999687194824,-1.3220000267028809 C-16.018999099731445,-0.7179999947547913 -16.950000762939453,0.003000000026077032 -17.77199935913086,0.8420000076293945 C-18.5939998626709,1.6820000410079956 -19.261999130249023,2.6600000858306885 -19.77400016784668,3.7760000228881836 C-20.285999298095703,4.89300012588501 -20.54199981689453,6.164000034332275 -20.54199981689453,7.590000152587891 C-20.54199981689453,9.402000427246094 -20.20199966430664,10.996000289916992 -19.52199935913086,12.371999740600586 C-18.841999053955078,13.748000144958496 -17.898000717163086,14.902000427246094 -16.690000534057617,15.833000183105469 C-15.480999946594238,16.764999389648438 -14.043000221252441,17.465999603271484 -12.373000144958496,17.93600082397461 C-10.70300006866455,18.405000686645508 -8.88599967956543,18.642000198364258 -6.921999931335449,18.642000198364258 C-5.4120001792907715,18.642000198364258 -3.99399995803833,18.50200080871582 -2.6689999103546143,18.225000381469727 C-1.3420000076293945,17.94700050354004 -0.1289999932050705,17.59600067138672 0.968999981880188,17.167999267578125 C2.069000005722046,16.73900032043457 3.055000066757202,16.256999969482422 3.927000045776367,15.720999717712402 C4.800000190734863,15.184000015258789 5.546999931335449,14.663000106811523 6.166999816894531,14.159000396728516 C6.73799991607666,14.779999732971191 7.3420000076293945,15.36400032043457 7.980000019073486,15.909000396728516 C8.618000030517578,16.45400047302246 9.293000221252441,16.929000854492188 10.005999565124512,17.33099937438965 C10.720000267028809,17.733999252319336 11.475000381469727,18.054000854492188 12.27299976348877,18.288999557495117 C13.069999694824219,18.523000717163086 13.913000106811523,18.642000198364258 14.802000045776367,18.642000198364258 C15.90999984741211,18.642000198364258 16.913000106811523,18.55299949645996 17.81100082397461,18.375999450683594 C18.70800018310547,18.200000762939453 19.618999481201172,17.92799949645996 20.54199981689453,17.55900001525879 C20.54199981689453,17.55900001525879 20.54199981689453,11.565999984741211 20.54199981689453,11.565999984741211 C19.920000076293945,11.88599967956543 19.19099998474121,12.133999824523926 18.351999282836914,12.3100004196167 C17.511999130249023,12.486000061035156 16.69099998474121,12.572999954223633 15.885000228881836,12.572999954223633z M-8.78600025177002,-11.380000114440918 C-8.60099983215332,-11.77299976348877 -8.336000442504883,-12.112000465393066 -7.993000030517578,-12.397000312805176 C-7.6479997634887695,-12.684000015258789 -7.245999813079834,-12.91100025177002 -6.783999919891357,-13.07800006866455 C-6.322999954223633,-13.246000289916992 -5.815000057220459,-13.331000328063965 -5.261000156402588,-13.331000328063965 C-4.808000087738037,-13.331000328063965 -4.379000186920166,-13.258999824523926 -3.9769999980926514,-13.116000175476074 C-3.575000047683716,-12.973999977111816 -3.2130000591278076,-12.772000312805176 -2.8949999809265137,-12.512999534606934 C-2.5769999027252197,-12.251999855041504 -2.3239998817443848,-11.928999900817871 -2.1389999389648438,-11.543000221252441 C-1.9550000429153442,-11.156000137329102 -1.8630000352859497,-10.720000267028809 -1.8630000352859497,-10.232000350952148 C-1.8630000352859497,-9.595000267028809 -1.9759999513626099,-9.032999992370605 -2.203000068664551,-8.54699993133545 C-2.428999900817871,-8.0600004196167 -2.7309999465942383,-7.631999969482422 -3.1089999675750732,-7.263000011444092 C-3.4860000610351562,-6.89300012588501 -3.9230000972747803,-6.574999809265137 -4.418000221252441,-6.307000160217285 C-4.913000106811523,-6.038000106811523 -5.436999797821045,-5.803999900817871 -5.991000175476074,-5.603000164031982 C-6.863999843597412,-6.089000225067139 -7.5929999351501465,-6.7270002365112305 -8.180999755859375,-7.515999794006348 C-8.767999649047852,-8.303999900817871 -9.062000274658203,-9.166999816894531 -9.062000274658203,-10.107000350952148 C-9.062000274658203,-10.560999870300293 -8.970000267028809,-10.984999656677246 -8.78600025177002,-11.380000114440918z M0.8939999938011169,10.460000038146973 C0.23100000619888306,10.878999710083008 -0.4869999885559082,11.248000144958496 -1.2580000162124634,11.565999984741211 C-2.0309998989105225,11.88599967956543 -2.8529999256134033,12.142999649047852 -3.7249999046325684,12.335000038146973 C-4.5980000495910645,12.527999877929688 -5.53000020980835,12.62399959564209 -6.519999980926514,12.62399959564209 C-7.409999847412109,12.62399959564209 -8.218999862670898,12.494000434875488 -8.949000358581543,12.232999801635742 C-9.678999900817871,11.973999977111816 -10.307999610900879,11.607999801635742 -10.836000442504883,11.138999938964844 C-11.366000175476074,10.668999671936035 -11.77299976348877,10.107000350952148 -12.057999610900879,9.45300006866455 C-12.343000411987305,8.79800033569336 -12.486000061035156,8.067999839782715 -12.486000061035156,7.263000011444092 C-12.486000061035156,6.355999946594238 -12.33899974822998,5.553999900817871 -12.045000076293945,4.85699987411499 C-11.751999855041504,4.160999774932861 -11.362000465393066,3.5409998893737793 -10.875,2.994999885559082 C-10.387999534606934,2.4489998817443848 -9.829999923706055,1.972000002861023 -9.201000213623047,1.559999942779541 C-8.571000099182129,1.1490000486373901 -7.913000106811523,0.7760000228881836 -7.223999977111816,0.4399999976158142 C-6.4029998779296875,0.8100000023841858 -5.585000038146973,1.2200000286102295 -4.769999980926514,1.6729999780654907 C-3.9570000171661377,2.127000093460083 -3.138000011444092,2.686000108718872 -2.315999984741211,3.3489999771118164 C-1.49399995803833,4.01200008392334 -0.6629999876022339,4.809000015258789 0.17599999904632568,5.739999771118164 C1.0149999856948853,6.671000003814697 1.8630000352859497,7.809000015258789 2.7190001010894775,9.149999618530273 C2.1649999618530273,9.604000091552734 1.5570000410079956,10.041000366210938 0.8939999938011169,10.460000038146973z"></path></g><g opacity="1" transform="matrix(1,0,0,1,230.90699768066406,294.10101318359375)"><path fill="rgb(253,254,254)" fill-opacity="1" d=" M-0.023000000044703484,-18.628999710083008 C-1.031000018119812,-18.628999710083008 -1.88100004196167,-18.281999588012695 -2.5739998817443848,-17.59000015258789 C-3.2669999599456787,-16.898000717163086 -3.61299991607666,-16.04800033569336 -3.61299991607666,-15.039999961853027 C-3.61299991607666,-15.039999961853027 -3.61299991607666,15.039999961853027 -3.61299991607666,15.039999961853027 C-3.61299991607666,16.04800033569336 -3.2669999599456787,16.89699935913086 -2.5739998817443848,17.59000015258789 C-1.88100004196167,18.283000946044922 -1.031000018119812,18.628999710083008 -0.023000000044703484,18.628999710083008 C0.984000027179718,18.628999710083008 1.840999960899353,18.283000946044922 2.549999952316284,17.59000015258789 C3.257999897003174,16.89699935913086 3.61299991607666,16.04800033569336 3.61299991607666,15.039999961853027 C3.61299991607666,15.039999961853027 3.61299991607666,-15.039999961853027 3.61299991607666,-15.039999961853027 C3.61299991607666,-16.04800033569336 3.257999897003174,-16.898000717163086 2.549999952316284,-17.59000015258789 C1.840999960899353,-18.281999588012695 0.984000027179718,-18.628999710083008 -0.023000000044703484,-18.628999710083008z"></path></g><g opacity="1" transform="matrix(1,0,0,1,253.78500366210938,294.10101318359375)"><path fill="rgb(253,254,254)" fill-opacity="1" d=" M11.475000381469727,-18.628999710083008 C10.562000274658203,-18.628999710083008 9.767000198364258,-18.298999786376953 9.09000015258789,-17.63800048828125 C8.411999702453613,-16.97599983215332 8.074999809265137,-16.173999786376953 8.074999809265137,-15.229000091552734 C8.074999809265137,-15.229000091552734 8.074999809265137,7.956999778747559 8.074999809265137,7.956999778747559 C8.074999809265137,7.956999778747559 -5.9029998779296875,-15.46500015258789 -5.9029998779296875,-15.46500015258789 C-6.500999927520752,-16.472999572753906 -7.201000213623047,-17.25200080871582 -8.003999710083008,-17.80299949645996 C-8.807000160217285,-18.354000091552734 -9.758999824523926,-18.628999710083008 -10.861000061035156,-18.628999710083008 C-11.994999885559082,-18.628999710083008 -12.954999923706055,-18.233999252319336 -13.741999626159668,-17.447999954223633 C-14.529000282287598,-16.660999298095703 -14.920999526977539,-15.717000007629395 -14.920999526977539,-14.614999771118164 C-14.920999526977539,-14.614999771118164 -14.920999526977539,15.227999687194824 -14.920999526977539,15.227999687194824 C-14.920999526977539,16.142000198364258 -14.583999633789062,16.937000274658203 -13.906999588012695,17.613000869750977 C-13.229999542236328,18.291000366210938 -12.4350004196167,18.628999710083008 -11.522000312805176,18.628999710083008 C-10.57800006866455,18.628999710083008 -9.767000198364258,18.291000366210938 -9.09000015258789,17.613000869750977 C-8.413999557495117,16.937000274658203 -8.074999809265137,16.142000198364258 -8.074999809265137,15.227999687194824 C-8.074999809265137,15.227999687194824 -8.074999809265137,-7.956999778747559 -8.074999809265137,-7.956999778747559 C-8.074999809265137,-7.956999778747559 5.9029998779296875,15.46500015258789 5.9029998779296875,15.46500015258789 C6.5,16.440000534057617 7.202000141143799,17.211999893188477 8.003999710083008,17.777999877929688 C8.807000160217285,18.34600067138672 9.758000373840332,18.628999710083008 10.861000061035156,18.628999710083008 C11.427000045776367,18.628999710083008 11.954000473022461,18.525999069213867 12.442999839782715,18.32200050354004 C12.930999755859375,18.117000579833984 13.355999946594238,17.826000213623047 13.717000007629395,17.447999954223633 C14.079000473022461,17.06999969482422 14.371000289916992,16.63800048828125 14.590999603271484,16.14900016784668 C14.810999870300293,15.66100025177002 14.920999526977539,15.135000228881836 14.920999526977539,14.567000389099121 C14.920999526977539,14.567000389099121 14.920999526977539,-15.229000091552734 14.920999526977539,-15.229000091552734 C14.920999526977539,-16.173999786376953 14.583000183105469,-16.97599983215332 13.906999588012695,-17.63800048828125 C13.229000091552734,-18.298999786376953 12.418999671936035,-18.628999710083008 11.475000381469727,-18.628999710083008z"></path></g><g opacity="1" transform="matrix(1,0,0,1,286.4150085449219,294.10101318359375)"><path fill="rgb(253,254,254)" fill-opacity="1" d=" M11.805999755859375,-18.628999710083008 C11.805999755859375,-18.628999710083008 -11.805000305175781,-18.628999710083008 -11.805000305175781,-18.628999710083008 C-12.654999732971191,-18.628999710083008 -13.38700008392334,-18.32900047302246 -14.00100040435791,-17.73200035095215 C-14.614999771118164,-17.134000778198242 -14.92199993133545,-16.409000396728516 -14.92199993133545,-15.5600004196167 C-14.92199993133545,-14.678000450134277 -14.614999771118164,-13.937999725341797 -14.00100040435791,-13.34000015258789 C-13.38700008392334,-12.741999626159668 -12.654999732971191,-12.442999839782715 -11.805000305175781,-12.442999839782715 C-11.805000305175781,-12.442999839782715 -3.5889999866485596,-12.442999839782715 -3.5889999866485596,-12.442999839782715 C-3.5889999866485596,-12.442999839782715 -3.5889999866485596,15.039999961853027 -3.5889999866485596,15.039999961853027 C-3.5889999866485596,16.04800033569336 -3.243000030517578,16.89699935913086 -2.549999952316284,17.59000015258789 C-1.8580000400543213,18.283000946044922 -1.0080000162124634,18.628999710083008 0,18.628999710083008 C1.0069999694824219,18.628999710083008 1.8569999933242798,18.283000946044922 2.549999952316284,17.59000015258789 C3.242000102996826,16.89699935913086 3.5880000591278076,16.04800033569336 3.5880000591278076,15.039999961853027 C3.5880000591278076,15.039999961853027 3.5880000591278076,-12.442999839782715 3.5880000591278076,-12.442999839782715 C3.5880000591278076,-12.442999839782715 11.805999755859375,-12.442999839782715 11.805999755859375,-12.442999839782715 C12.656000137329102,-12.442999839782715 13.38700008392334,-12.741999626159668 14.00100040435791,-13.34000015258789 C14.614999771118164,-13.937999725341797 14.92199993133545,-14.678000450134277 14.92199993133545,-15.5600004196167 C14.92199993133545,-16.409000396728516 14.614999771118164,-17.134000778198242 14.00100040435791,-17.73200035095215 C13.38700008392334,-18.32900047302246 12.656000137329102,-18.628999710083008 11.805999755859375,-18.628999710083008z"></path></g><g opacity="1" transform="matrix(1,0,0,1,317.5329895019531,294.1000061035156)"><path fill="rgb(253,254,254)" fill-opacity="1" d=" M10.343000411987305,-12.442999839782715 C11.194000244140625,-12.442999839782715 11.916000366210938,-12.741999626159668 12.515000343322754,-13.33899974822998 C13.11299991607666,-13.937000274658203 13.41100025177002,-14.677000045776367 13.41100025177002,-15.559000015258789 C13.41100025177002,-16.409000396728516 13.11299991607666,-17.132999420166016 12.515000343322754,-17.731000900268555 C11.916000366210938,-18.32900047302246 11.194000244140625,-18.628999710083008 10.343000411987305,-18.628999710083008 C10.343000411987305,-18.628999710083008 -9.678999900817871,-18.628999710083008 -9.678999900817871,-18.628999710083008 C-10.435999870300293,-18.628999710083008 -11.055999755859375,-18.4950008392334 -11.545000076293945,-18.226999282836914 C-12.032999992370605,-17.959999084472656 -12.420000076293945,-17.628999710083008 -12.70300006866455,-17.236000061035156 C-12.986000061035156,-16.840999603271484 -13.173999786376953,-16.43199920654297 -13.267999649047852,-16.006999969482422 C-13.362000465393066,-15.583000183105469 -13.41100025177002,-15.227999687194824 -13.41100025177002,-14.944999694824219 C-13.41100025177002,-14.944999694824219 -13.41100025177002,14.89900016784668 -13.41100025177002,14.89900016784668 C-13.41100025177002,15.5600004196167 -13.300999641418457,16.125999450683594 -13.079999923706055,16.597999572753906 C-12.859999656677246,17.070999145507812 -12.567000389099121,17.45599937438965 -12.206000328063965,17.7549991607666 C-11.843999862670898,18.05500030517578 -11.442999839782715,18.274999618530273 -11.003000259399414,18.416000366210938 C-10.562000274658203,18.558000564575195 -10.121999740600586,18.628999710083008 -9.678999900817871,18.628999710083008 C-9.678999900817871,18.628999710083008 10.343000411987305,18.628999710083008 10.343000411987305,18.628999710083008 C11.194000244140625,18.628999710083008 11.916000366210938,18.329999923706055 12.515000343322754,17.73200035095215 C13.11299991607666,17.134000778198242 13.41100025177002,16.393999099731445 13.41100025177002,15.51200008392334 C13.41100025177002,14.661999702453613 13.11299991607666,13.939000129699707 12.515000343322754,13.34000015258789 C11.916000366210938,12.743000030517578 11.194000244140625,12.442999839782715 10.343000411987305,12.442999839782715 C10.343000411987305,12.442999839782715 -6.184999942779541,12.442999839782715 -6.184999942779541,12.442999839782715 C-6.184999942779541,12.442999839782715 -6.184999942779541,1.8660000562667847 -6.184999942779541,1.8660000562667847 C-6.184999942779541,1.8660000562667847 7.697999954223633,1.8660000562667847 7.697999954223633,1.8660000562667847 C8.579000473022461,1.8660000562667847 9.319000244140625,1.559000015258789 9.916999816894531,0.9449999928474426 C10.513999938964844,0.33000001311302185 10.8149995803833,-0.4009999930858612 10.8149995803833,-1.2519999742507935 C10.8149995803833,-2.1010000705718994 10.513999938964844,-2.8329999446868896 9.916999816894531,-3.447000026702881 C9.319000244140625,-4.059999942779541 8.579000473022461,-4.368000030517578 7.697999954223633,-4.368000030517578 C7.697999954223633,-4.368000030517578 -6.184999942779541,-4.368000030517578 -6.184999942779541,-4.368000030517578 C-6.184999942779541,-4.368000030517578 -6.184999942779541,-12.442999839782715 -6.184999942779541,-12.442999839782715 C-6.184999942779541,-12.442999839782715 10.343000411987305,-12.442999839782715 10.343000411987305,-12.442999839782715z"></path></g><g opacity="1" transform="matrix(1,0,0,1,348.4859924316406,294.10101318359375)"><path fill="rgb(253,254,254)" fill-opacity="1" d=" M8.145000457763672,0.07000000029802322 C10.222999572753906,-0.6209999918937683 11.788999557495117,-1.7549999952316284 12.845000267028809,-3.3289999961853027 C13.89900016784668,-4.9039998054504395 14.425999641418457,-6.761000156402588 14.425999641418457,-8.902000427246094 C14.425999641418457,-10.255000114440918 14.164999961853027,-11.52299976348877 13.647000312805176,-12.70300006866455 C13.126999855041504,-13.883000373840332 12.427000045776367,-14.913999557495117 11.545999526977539,-15.795000076293945 C10.663999557495117,-16.677000045776367 9.62399959564209,-17.368999481201172 8.428000450134277,-17.87299919128418 C7.23199987411499,-18.37700080871582 5.973999977111816,-18.628999710083008 4.6519999504089355,-18.628999710083008 C4.6519999504089355,-18.628999710083008 -10.696000099182129,-18.628999710083008 -10.696000099182129,-18.628999710083008 C-11.45199966430664,-18.628999710083008 -12.074000358581543,-18.4950008392334 -12.560999870300293,-18.22800064086914 C-13.050000190734863,-17.959999084472656 -13.434000015258789,-17.628999710083008 -13.718000411987305,-17.23699951171875 C-14.00100040435791,-16.841999053955078 -14.1899995803833,-16.433000564575195 -14.28499984741211,-16.007999420166016 C-14.378999710083008,-15.583000183105469 -14.425999641418457,-15.229000091552734 -14.425999641418457,-14.946000099182129 C-14.425999641418457,-14.946000099182129 -14.425999641418457,15.039999961853027 -14.425999641418457,15.039999961853027 C-14.425999641418457,16.047000885009766 -14.079000473022461,16.89699935913086 -13.38700008392334,17.589000701904297 C-12.694999694824219,18.283000946044922 -11.845000267028809,18.628999710083008 -10.836999893188477,18.628999710083008 C-9.829000473022461,18.628999710083008 -8.972000122070312,18.283000946044922 -8.263999938964844,17.589000701904297 C-7.554999828338623,16.89699935913086 -7.199999809265137,16.047000885009766 -7.199999809265137,15.039999961853027 C-7.199999809265137,15.039999961853027 -7.199999809265137,3.4700000286102295 -7.199999809265137,3.4700000286102295 C-7.199999809265137,3.4700000286102295 -0.4000000059604645,3.4700000286102295 -0.4000000059604645,3.4700000286102295 C0.7329999804496765,3.4700000286102295 1.6929999589920044,3.5810000896453857 2.4800000190734863,3.799999952316284 C3.2660000324249268,4.021999835968018 3.9110000133514404,4.313000202178955 4.414999961853027,4.673999786376953 C4.918000221252441,5.0370001792907715 5.288000106811523,5.422999858856201 5.525000095367432,5.831999778747559 C5.761000156402588,6.241000175476074 5.908999919891357,6.633999824523926 5.9730000495910645,7.01200008392334 C5.9730000495910645,7.01200008392334 7.01200008392334,15.701000213623047 7.01200008392334,15.701000213623047 C7.10699987411499,16.582000732421875 7.485000133514404,17.291000366210938 8.145000457763672,17.826000213623047 C8.807000160217285,18.361000061035156 9.593999862670898,18.628999710083008 10.506999969482422,18.628999710083008 C10.947999954223633,18.628999710083008 11.395999908447266,18.55699920654297 11.852999687194824,18.416000366210938 C12.3100004196167,18.27400016784668 12.718000411987305,18.062000274658203 13.079999923706055,17.777999877929688 C13.442000389099121,17.4950008392334 13.72599983215332,17.14900016784668 13.930999755859375,16.73900032043457 C14.13599967956543,16.33099937438965 14.206000328063965,15.859000205993652 14.144000053405762,15.322999954223633 C14.144000053405762,15.322999954223633 13.057999610900879,5.453999996185303 13.057999610900879,5.453999996185303 C12.993000030517578,4.823999881744385 12.803999900817871,4.25 12.48900032043457,3.7300000190734863 C12.173999786376953,3.2109999656677246 11.79800033569336,2.755000114440918 11.357999801635742,2.3610000610351562 C10.916000366210938,1.9670000076293945 10.418999671936035,1.6449999809265137 9.869000434875488,1.3919999599456787 C9.317999839782715,1.1410000324249268 8.76099967956543,0.9670000076293945 8.194000244140625,0.8740000128746033 C7.815999984741211,0.7789999842643738 7.625999927520752,0.6370000243186951 7.625999927520752,0.4490000009536743 C7.625999927520752,0.3230000138282776 7.797999858856201,0.19599999487400055 8.145000457763672,0.07000000029802322z M6.800000190734863,-5.264999866485596 C6.5320000648498535,-4.635000228881836 6.1620001792907715,-4.085000038146973 5.690999984741211,-3.61299991607666 C5.2179999351501465,-3.140000104904175 4.666999816894531,-2.7699999809265137 4.038000106811523,-2.503000020980835 C3.4070000648498535,-2.2360000610351562 2.744999885559082,-2.1019999980926514 2.053999900817871,-2.1019999980926514 C2.053999900817871,-2.1019999980926514 -7.199999809265137,-2.1019999980926514 -7.199999809265137,-2.1019999980926514 C-7.199999809265137,-2.1019999980926514 -7.199999809265137,-12.444000244140625 -7.199999809265137,-12.444000244140625 C-7.199999809265137,-12.444000244140625 2.053999900817871,-12.444000244140625 2.053999900817871,-12.444000244140625 C2.744999885559082,-12.444000244140625 3.4070000648498535,-12.309000015258789 4.038000106811523,-12.041000366210938 C4.666999816894531,-11.77400016784668 5.2179999351501465,-11.404999732971191 5.690999984741211,-10.932000160217285 C6.1620001792907715,-10.460000038146973 6.5320000648498535,-9.909000396728516 6.800000190734863,-9.279999732971191 C7.067999839782715,-8.64900016784668 7.199999809265137,-7.988999843597412 7.199999809265137,-7.296000003814697 C7.199999809265137,-6.572000026702881 7.067999839782715,-5.894999980926514 6.800000190734863,-5.264999866485596z"></path></g><g opacity="1" transform="matrix(1,0,0,1,379.3680114746094,293.7699890136719)"><path fill="rgb(253,254,254)" fill-opacity="1" d=" M5.171000003814697,-14.236000061035156 C4.949999809265137,-14.866000175476074 4.682000160217285,-15.472000122070312 4.368000030517578,-16.05500030517578 C4.052999973297119,-16.636999130249023 3.683000087738037,-17.141000747680664 3.257999897003174,-17.565000534057617 C2.8340001106262207,-17.989999771118164 2.3529999256134033,-18.32900047302246 1.8179999589920044,-18.58099937438965 C1.2829999923706055,-18.83300018310547 0.6840000152587891,-18.958999633789062 0.024000000208616257,-18.958999633789062 C-0.6679999828338623,-18.958999633789062 -1.284000039100647,-18.83300018310547 -1.8179999589920044,-18.58099937438965 C-2.3540000915527344,-18.32900047302246 -2.8259999752044678,-17.989999771118164 -3.2339999675750732,-17.565000534057617 C-3.6449999809265137,-17.141000747680664 -4.00600004196167,-16.636999130249023 -4.321000099182129,-16.05500030517578 C-4.636000156402588,-15.472000122070312 -4.9039998054504395,-14.866000175476074 -5.123000144958496,-14.236000061035156 C-5.123000144958496,-14.236000061035156 -14.944999694824219,14.001999855041504 -14.944999694824219,14.001999855041504 C-15.102999687194824,14.473999977111816 -15.180999755859375,14.914999961853027 -15.180999755859375,15.324000358581543 C-15.180999755859375,16.268999099731445 -14.859000205993652,17.110000610351562 -14.213000297546387,17.850000381469727 C-13.569000244140625,18.59000015258789 -12.694999694824219,18.959999084472656 -11.593000411987305,18.959999084472656 C-10.836999893188477,18.959999084472656 -10.13700008392334,18.739999771118164 -9.491000175476074,18.298999786376953 C-8.845999717712402,17.857999801635742 -8.39799976348877,17.260000228881836 -8.145000457763672,16.503999710083008 C-8.145000457763672,16.503999710083008 -5.453000068664551,7.484000205993652 -5.453000068664551,7.484000205993652 C-5.453000068664551,7.484000205993652 5.500999927520752,7.484000205993652 5.500999927520752,7.484000205993652 C5.500999927520752,7.484000205993652 8.194000244140625,16.503999710083008 8.194000244140625,16.503999710083008 C8.444999694824219,17.260000228881836 8.892999649047852,17.857999801635742 9.539999961853027,18.298999786376953 C10.184000015258789,18.739999771118164 10.885000228881836,18.959999084472656 11.640000343322754,18.959999084472656 C12.269000053405762,18.959999084472656 12.805000305175781,18.840999603271484 13.246000289916992,18.604999542236328 C13.685999870300293,18.368000030517578 14.04800033569336,18.077999114990234 14.331999778747559,17.73200035095215 C14.614999771118164,17.38599967956543 14.82800006866455,16.992000579833984 14.968999862670898,16.552000045776367 C15.111000061035156,16.111000061035156 15.180999755859375,15.701000213623047 15.180999755859375,15.324000358581543 C15.180999755859375,14.914999961853027 15.10200023651123,14.473999977111816 14.944999694824219,14.001999855041504 C14.944999694824219,14.001999855041504 5.171000003814697,-14.236000061035156 5.171000003814697,-14.236000061035156z M-3.8489999771118164,1.9600000381469727 C-3.8489999771118164,1.9600000381469727 0.024000000208616257,-11.072999954223633 0.024000000208616257,-11.072999954223633 C0.024000000208616257,-11.072999954223633 3.8489999771118164,1.9600000381469727 3.8489999771118164,1.9600000381469727 C3.8489999771118164,1.9600000381469727 -3.8489999771118164,1.9600000381469727 -3.8489999771118164,1.9600000381469727z"></path></g><g opacity="1" transform="matrix(1,0,0,1,410.1809997558594,294.0769958496094)"><path fill="rgb(253,254,254)" fill-opacity="1" d=" M-5.879000186920166,-8.878000259399414 C-5.046000003814697,-10.105999946594238 -4.0229997634887695,-11.104000091552734 -2.811000108718872,-11.875 C-1.5989999771118164,-12.647000312805176 -0.20499999821186066,-13.031999588012695 1.3700000047683716,-13.031999588012695 C2.753999948501587,-13.031999588012695 3.9100000858306885,-12.82699966430664 4.840000152587891,-12.418999671936035 C5.767000198364258,-12.008999824523926 6.540999889373779,-11.513999938964844 7.1539998054504395,-10.930999755859375 C7.76800012588501,-10.348999977111816 8.255999565124512,-9.718999862670898 8.618000030517578,-9.041999816894531 C8.979999542236328,-8.364999771118164 9.28600025177002,-7.77400016784668 9.538999557495117,-7.271999835968018 C9.758999824523926,-6.829999923706055 10.057999610900879,-6.499000072479248 10.435999870300293,-6.2789998054504395 C10.814000129699707,-6.059000015258789 11.23900032043457,-5.948999881744385 11.711000442504883,-5.948999881744385 C12.151000022888184,-5.948999881744385 12.598999977111816,-6.044000148773193 13.055999755859375,-6.23199987411499 C13.512999534606934,-6.421999931335449 13.930999755859375,-6.672999858856201 14.307999610900879,-6.98799991607666 C14.6850004196167,-7.302999973297119 14.993000030517578,-7.679999828338623 15.227999687194824,-8.121000289916992 C15.46500015258789,-8.562000274658203 15.581999778747559,-9.034000396728516 15.581999778747559,-9.538000106811523 C15.581999778747559,-10.199000358581543 15.284000396728516,-11.079999923706055 14.6850004196167,-12.182999610900879 C14.088000297546387,-13.284000396728516 13.189000129699707,-14.354999542236328 11.993000030517578,-15.394000053405762 C10.79699993133545,-16.433000564575195 9.317999839782715,-17.336999893188477 7.556000232696533,-18.108999252319336 C5.793000221252441,-18.8799991607666 3.7300000190734863,-19.266000747680664 1.3700000047683716,-19.266000747680664 C-1.4630000591278076,-19.266000747680664 -3.941999912261963,-18.729999542236328 -6.066999912261963,-17.65999984741211 C-8.192000389099121,-16.59000015258789 -9.956999778747559,-15.164999961853027 -11.357999801635742,-13.38700008392334 C-12.758999824523926,-11.607000350952148 -13.812999725341797,-9.553999900817871 -14.522000312805176,-7.223999977111816 C-15.229999542236328,-4.894000053405762 -15.581999778747559,-2.484999895095825 -15.581999778747559,0.0010000000474974513 C-15.581999778747559,2.5190000534057617 -15.229999542236328,4.935999870300293 -14.522000312805176,7.249000072479248 C-13.812999725341797,9.562000274658203 -12.758999824523926,11.609000205993652 -11.357999801635742,13.387999534606934 C-9.956999778747559,15.166999816894531 -8.192000389099121,16.591999053955078 -6.066999912261963,17.660999298095703 C-3.941999912261963,18.731000900268555 -1.4630000591278076,19.267000198364258 1.3700000047683716,19.267000198364258 C3.7300000190734863,19.267000198364258 5.793000221252441,18.888999938964844 7.556000232696533,18.134000778198242 C9.317999839782715,17.378000259399414 10.788999557495117,16.479999542236328 11.970000267028809,15.442000389099121 C13.149999618530273,14.402999877929688 14.039999961853027,13.333000183105469 14.638999938964844,12.230999946594238 C15.236000061035156,11.130000114440918 15.53499984741211,10.232000350952148 15.53499984741211,9.538999557495117 C15.53499984741211,9.03600025177002 15.416999816894531,8.562000274658203 15.180999755859375,8.121999740600586 C14.944000244140625,7.682000160217285 14.638999938964844,7.304999828338623 14.26099967956543,6.988999843597412 C13.883000373840332,6.675000190734863 13.46399974822998,6.422999858856201 13.008999824523926,6.232999801635742 C12.552000045776367,6.045000076293945 12.102999687194824,5.949999809265137 11.663999557495117,5.949999809265137 C11.222999572753906,5.949999809265137 10.814000129699707,6.060999870300293 10.435999870300293,6.281000137329102 C10.057999610900879,6.501999855041504 9.758999824523926,6.831999778747559 9.538999557495117,7.271999835968018 C9.28600025177002,7.809000015258789 8.979999542236328,8.406000137329102 8.618000030517578,9.067000389099121 C8.255999565124512,9.727999687194824 7.76800012588501,10.357999801635742 7.1539998054504395,10.956000328063965 C6.540999889373779,11.555000305175781 5.767000198364258,12.059000015258789 4.840000152587891,12.467000007629395 C3.9100000858306885,12.876999855041504 2.753999948501587,13.081000328063965 1.3700000047683716,13.081000328063965 C-0.20499999821186066,13.081000328063965 -1.5989999771118164,12.696000099182129 -2.811000108718872,11.923999786376953 C-4.0229997634887695,11.152999877929688 -5.046000003814697,10.152999877929688 -5.879000186920166,8.925999641418457 C-6.7129998207092285,7.697999954223633 -7.3420000076293945,6.304999828338623 -7.76800012588501,4.745999813079834 C-8.192000389099121,3.187999963760376 -8.404999732971191,1.6059999465942383 -8.404999732971191,0.0010000000474974513 C-8.404999732971191,-1.5729999542236328 -8.192000389099121,-3.140000104904175 -7.76800012588501,-4.697999954223633 C-7.3420000076293945,-6.25600004196167 -6.7129998207092285,-7.64900016784668 -5.879000186920166,-8.878000259399414z"></path></g><g opacity="1" transform="matrix(1,0,0,1,440.2130126953125,294.10101318359375)"><path fill="rgb(253,254,254)" fill-opacity="1" d=" M11.805999755859375,-18.628999710083008 C11.805999755859375,-18.628999710083008 -11.805000305175781,-18.628999710083008 -11.805000305175781,-18.628999710083008 C-12.654999732971191,-18.628999710083008 -13.38599967956543,-18.32900047302246 -14.001999855041504,-17.73200035095215 C-14.614999771118164,-17.134000778198242 -14.92199993133545,-16.409000396728516 -14.92199993133545,-15.5600004196167 C-14.92199993133545,-14.678000450134277 -14.614999771118164,-13.937999725341797 -14.001999855041504,-13.34000015258789 C-13.38599967956543,-12.741999626159668 -12.654999732971191,-12.442999839782715 -11.805000305175781,-12.442999839782715 C-11.805000305175781,-12.442999839782715 -3.5880000591278076,-12.442999839782715 -3.5880000591278076,-12.442999839782715 C-3.5880000591278076,-12.442999839782715 -3.5880000591278076,15.039999961853027 -3.5880000591278076,15.039999961853027 C-3.5880000591278076,16.04800033569336 -3.242000102996826,16.89699935913086 -2.5490000247955322,17.59000015258789 C-1.8580000400543213,18.283000946044922 -1.0080000162124634,18.628999710083008 0,18.628999710083008 C1.0069999694824219,18.628999710083008 1.8580000400543213,18.283000946044922 2.549999952316284,17.59000015258789 C3.242000102996826,16.89699935913086 3.5889999866485596,16.04800033569336 3.5889999866485596,15.039999961853027 C3.5889999866485596,15.039999961853027 3.5889999866485596,-12.442999839782715 3.5889999866485596,-12.442999839782715 C3.5889999866485596,-12.442999839782715 11.805999755859375,-12.442999839782715 11.805999755859375,-12.442999839782715 C12.656000137329102,-12.442999839782715 13.38700008392334,-12.741999626159668 14.001999855041504,-13.34000015258789 C14.616000175476074,-13.937999725341797 14.92199993133545,-14.678000450134277 14.92199993133545,-15.5600004196167 C14.92199993133545,-16.409000396728516 14.616000175476074,-17.134000778198242 14.001999855041504,-17.73200035095215 C13.38700008392334,-18.32900047302246 12.656000137329102,-18.628999710083008 11.805999755859375,-18.628999710083008z"></path></g><g opacity="1" transform="matrix(1,0,0,1,461.5329895019531,294.10101318359375)"><path fill="rgb(253,254,254)" fill-opacity="1" d=" M-0.023000000044703484,-18.628999710083008 C-1.031000018119812,-18.628999710083008 -1.88100004196167,-18.281999588012695 -2.572999954223633,-17.59000015258789 C-3.265000104904175,-16.898000717163086 -3.614000082015991,-16.04800033569336 -3.614000082015991,-15.039999961853027 C-3.614000082015991,-15.039999961853027 -3.614000082015991,15.039999961853027 -3.614000082015991,15.039999961853027 C-3.614000082015991,16.04800033569336 -3.265000104904175,16.89699935913086 -2.572999954223633,17.59000015258789 C-1.88100004196167,18.283000946044922 -1.031000018119812,18.628999710083008 -0.023000000044703484,18.628999710083008 C0.9850000143051147,18.628999710083008 1.840000033378601,18.283000946044922 2.549999952316284,17.59000015258789 C3.257999897003174,16.89699935913086 3.614000082015991,16.04800033569336 3.614000082015991,15.039999961853027 C3.614000082015991,15.039999961853027 3.614000082015991,-15.039999961853027 3.614000082015991,-15.039999961853027 C3.614000082015991,-16.04800033569336 3.257999897003174,-16.898000717163086 2.549999952316284,-17.59000015258789 C1.840000033378601,-18.281999588012695 0.9850000143051147,-18.628999710083008 -0.023000000044703484,-18.628999710083008z"></path></g><g opacity="1" transform="matrix(1,0,0,1,482.45098876953125,294.10101318359375)"><path fill="rgb(253,254,254)" fill-opacity="1" d=" M13.505000114440918,-17.472000122070312 C13.175000190734863,-17.80299949645996 12.77400016784668,-18.07699966430664 12.300999641418457,-18.298999786376953 C11.829000473022461,-18.518999099731445 11.3100004196167,-18.628999710083008 10.741999626159668,-18.628999710083008 C10.019000053405762,-18.628999710083008 9.364999771118164,-18.45599937438965 8.782999992370605,-18.110000610351562 C8.199999809265137,-17.76300048828125 7.798999786376953,-17.243000030517578 7.578999996185303,-16.551000595092773 C7.578999996185303,-16.551000595092773 -0.023000000044703484,8.050000190734863 -0.023000000044703484,8.050000190734863 C-0.023000000044703484,8.050000190734863 -7.578999996185303,-16.551000595092773 -7.578999996185303,-16.551000595092773 C-7.798999786376953,-17.243000030517578 -8.201000213623047,-17.76300048828125 -8.782999992370605,-18.110000610351562 C-9.366000175476074,-18.45599937438965 -10.017999649047852,-18.628999710083008 -10.743000030517578,-18.628999710083008 C-11.404000282287598,-18.628999710083008 -11.970999717712402,-18.518999099731445 -12.442000389099121,-18.298999786376953 C-12.914999961853027,-18.07699966430664 -13.309000015258789,-17.79400062561035 -13.623000144958496,-17.448999404907227 C-13.937999725341797,-17.101999282836914 -14.173999786376953,-16.715999603271484 -14.331000328063965,-16.291000366210938 C-14.48900032043457,-15.866999626159668 -14.567000389099121,-15.46500015258789 -14.567000389099121,-15.086999893188477 C-14.567000389099121,-14.708999633789062 -14.505000114440918,-14.378999710083008 -14.378999710083008,-14.095999717712402 C-14.378999710083008,-14.095999717712402 -3.611999988555908,15.984000205993652 -3.611999988555908,15.984000205993652 C-3.3289999961853027,16.802000045776367 -2.872999906539917,17.447999954223633 -2.243000030517578,17.920000076293945 C-1.6139999628067017,18.392000198364258 -0.8730000257492065,18.628999710083008 -0.023000000044703484,18.628999710083008 C0.8579999804496765,18.628999710083008 1.6059999465942383,18.392000198364258 2.2190001010894775,17.920000076293945 C2.8340001106262207,17.447999954223633 3.2809998989105225,16.802000045776367 3.565000057220459,15.984000205993652 C3.565000057220459,15.984000205993652 14.378999710083008,-14.095999717712402 14.378999710083008,-14.095999717712402 C14.503999710083008,-14.378999710083008 14.567000389099121,-14.708999633789062 14.567000389099121,-15.086999893188477 C14.567000389099121,-15.496000289916992 14.473999977111816,-15.913000106811523 14.284000396728516,-16.339000701904297 C14.095999717712402,-16.763999938964844 13.836000442504883,-17.142000198364258 13.505000114440918,-17.472000122070312z"></path></g><g opacity="1" transform="matrix(1,0,0,1,513.1680297851562,294.10101318359375)"><path fill="rgb(253,254,254)" fill-opacity="1" d=" M10.343000411987305,12.442000389099121 C10.343000411987305,12.442000389099121 -6.184999942779541,12.442000389099121 -6.184999942779541,12.442000389099121 C-6.184999942779541,12.442000389099121 -6.184999942779541,1.8650000095367432 -6.184999942779541,1.8650000095367432 C-6.184999942779541,1.8650000095367432 7.697000026702881,1.8650000095367432 7.697000026702881,1.8650000095367432 C8.579000473022461,1.8650000095367432 9.319000244140625,1.5579999685287476 9.916999816894531,0.9440000057220459 C10.513999938964844,0.33000001311302185 10.8149995803833,-0.4020000100135803 10.8149995803833,-1.2519999742507935 C10.8149995803833,-2.1019999980926514 10.513999938964844,-2.8329999446868896 9.916999816894531,-3.447999954223633 C9.319000244140625,-4.060999870300293 8.579000473022461,-4.36899995803833 7.697000026702881,-4.36899995803833 C7.697000026702881,-4.36899995803833 -6.184999942779541,-4.36899995803833 -6.184999942779541,-4.36899995803833 C-6.184999942779541,-4.36899995803833 -6.184999942779541,-12.444000244140625 -6.184999942779541,-12.444000244140625 C-6.184999942779541,-12.444000244140625 10.343000411987305,-12.444000244140625 10.343000411987305,-12.444000244140625 C11.192999839782715,-12.444000244140625 11.914999961853027,-12.743000030517578 12.513999938964844,-13.34000015258789 C13.11299991607666,-13.937999725341797 13.41100025177002,-14.678000450134277 13.41100025177002,-15.5600004196167 C13.41100025177002,-16.40999984741211 13.11299991607666,-17.134000778198242 12.513999938964844,-17.73200035095215 C11.914999961853027,-18.32900047302246 11.192999839782715,-18.628999710083008 10.343000411987305,-18.628999710083008 C10.343000411987305,-18.628999710083008 -9.678999900817871,-18.628999710083008 -9.678999900817871,-18.628999710083008 C-10.4350004196167,-18.628999710083008 -11.057000160217285,-18.4950008392334 -11.545000076293945,-18.22800064086914 C-12.034000396728516,-17.959999084472656 -12.418999671936035,-17.628999710083008 -12.70199966430664,-17.23699951171875 C-12.986000061035156,-16.841999053955078 -13.175000190734863,-16.433000564575195 -13.269000053405762,-16.007999420166016 C-13.36299991607666,-15.583000183105469 -13.41100025177002,-15.229000091552734 -13.41100025177002,-14.946000099182129 C-13.41100025177002,-14.946000099182129 -13.41100025177002,14.89799976348877 -13.41100025177002,14.89799976348877 C-13.41100025177002,15.559000015258789 -13.300999641418457,16.125999450683594 -13.079999923706055,16.597000122070312 C-12.859999656677246,17.06999969482422 -12.567999839782715,17.45599937438965 -12.206999778747559,17.753999710083008 C-11.845000267028809,18.054000854492188 -11.442999839782715,18.27400016784668 -11.003000259399414,18.416000366210938 C-10.562000274658203,18.55699920654297 -10.121000289916992,18.628999710083008 -9.678999900817871,18.628999710083008 C-9.678999900817871,18.628999710083008 10.343000411987305,18.628999710083008 10.343000411987305,18.628999710083008 C11.192999839782715,18.628999710083008 11.914999961853027,18.329999923706055 12.513999938964844,17.731000900268555 C13.11299991607666,17.132999420166016 13.41100025177002,16.39299964904785 13.41100025177002,15.51099967956543 C13.41100025177002,14.661999702453613 13.11299991607666,13.937999725341797 12.513999938964844,13.33899974822998 C11.914999961853027,12.741999626159668 11.192999839782715,12.442000389099121 10.343000411987305,12.442000389099121z"></path></g><g opacity="1" transform="matrix(1,0,0,1,586.7059936523438,117.84400177001953)"><path fill="rgb(253,254,254)" fill-opacity="1" d=" M-34.994998931884766,99.45999908447266 C-34.994998931884766,99.45999908447266 -35.029998779296875,99.2040023803711 -35.029998779296875,99.2040023803711 C-35.029998779296875,99.2040023803711 -30.631999969482422,98.58799743652344 -30.631999969482422,98.58799743652344 C-30.631999969482422,98.58799743652344 0.8840000033378601,94.18000030517578 0.8840000033378601,94.18000030517578 C0.8840000033378601,94.18000030517578 49.33399963378906,87.4020004272461 49.33399963378906,87.4020004272461 C58.387001037597656,75.36100006103516 62.92100143432617,62.35599899291992 62.90700149536133,45.4379997253418 C62.89500045776367,30.082000732421875 58.1510009765625,17.641000747680664 48.67100143432617,1.1779999732971191 C48.67100143432617,1.1779999732971191 43.45199966430664,-7.953999996185303 43.45199966430664,-7.953999996185303 C39.37900161743164,-15.067000389099121 37.6510009765625,-20.934999465942383 37.64799880981445,-25.562000274658203 C37.637001037597656,-38.590999603271484 44.95500183105469,-49.7859992980957 56.53499984741211,-49.79499816894531 C59.24399948120117,-49.797000885009766 114.30599975585938,-49.65299987792969 114.30599975585938,-49.65299987792969 C114.30599975585938,-49.65299987792969 114.2509994506836,-116.76899719238281 114.2509994506836,-116.76899719238281 C114.2509994506836,-116.76899719238281 49.196998596191406,-116.71600341796875 39.73400115966797,-116.70800018310547 C18.165000915527344,-116.69100189208984 -6.247000217437744,-108.7760009765625 -15.87600040435791,-97.06600189208984 C-29.908000946044922,-79.9749984741211 -39.11800003051758,-65.74099731445312 -39.099998474121094,-43.9630012512207 C-39.08599853515625,-25.893999099731445 -33.93899917602539,-7.703000068664551 -23.65399932861328,10.343999862670898 C-17.21500015258789,21.73200035095215 -13.991000175476074,29.18199920654297 -13.98799991607666,32.56800079345703 C-13.984000205993652,37.757999420166016 -15.979000091552734,42.106998443603516 -19.985000610351562,45.553001403808594 C-23.9950008392334,49.01499938964844 -28.98699951171875,50.749000549316406 -34.97100067138672,50.75299835205078 C-37.404998779296875,50.755001068115234 -49.854000091552734,50.79399871826172 -62.14400100708008,50.81100082397461 C-64.18199920654297,56.013999938964844 -66.54900360107422,61.19900131225586 -69.2770004272461,66.31300354003906 C-80.58399963378906,87.55999755859375 -95.66200256347656,104.43399810791016 -114.30599975585938,116.76899719238281 C-96.30999755859375,116.75399780273438 -69.1500015258789,116.73200225830078 -48.130001068115234,116.71499633789062 C-48.130001068115234,116.71499633789062 -47.38999938964844,115.74299621582031 -47.38999938964844,115.74299621582031 C-47.38999938964844,115.74299621582031 -34.994998931884766,99.45999908447266 -34.994998931884766,99.45999908447266z"></path></g><g opacity="1" transform="matrix(1,0,0,1,561.1699829101562,235.1959991455078)"><path fill="rgb(253,254,254)" fill-opacity="1" d=" M0.9110000133514404,6.927999973297119 C0.9110000133514404,6.927999973297119 -0.9110000133514404,-6.927999973297119 -0.9110000133514404,-6.927999973297119 C-0.9110000133514404,-6.927999973297119 0.9110000133514404,6.927999973297119 0.9110000133514404,6.927999973297119z"></path></g><g opacity="1" transform="matrix(1,0,0,1,552.89697265625,232.34300231933594)"><path fill="rgb(253,254,254)" fill-opacity="1" d=" M-9.184000015258789,10.9399995803833 C-9.184000015258789,10.9399995803833 9.272000312805176,8.366999626159668 9.272000312805176,8.366999626159668 C9.272000312805176,8.366999626159668 9.14900016784668,7.369999885559082 9.14900016784668,7.369999885559082 C9.119999885559082,7.369999885559082 9.08899974822998,7.369999885559082 9.060999870300293,7.36899995803833 C9.060999870300293,7.36899995803833 7.361999988555908,-6.333000183105469 7.361999988555908,-6.333000183105469 C7.361999988555908,-6.333000183105469 6.790999889373779,-10.940999984741211 6.790999889373779,-10.940999984741211 C6.790999889373779,-10.940999984741211 -5.738999843597412,6.2210001945495605 -5.738999843597412,6.2210001945495605 C-5.738999843597412,6.2210001945495605 -6.486999988555908,7.247000217437744 -6.486999988555908,7.247000217437744 C-6.486999988555908,7.247000217437744 -9.173999786376953,10.925000190734863 -9.173999786376953,10.925000190734863 C-9.173999786376953,10.925000190734863 -9.272000312805176,10.939000129699707 -9.272000312805176,10.939000129699707 C-9.272000312805176,10.939000129699707 -9.272000312805176,10.9399995803833 -9.272000312805176,10.9399995803833 C-9.272000312805176,10.9399995803833 -9.173999786376953,10.925999641418457 -9.173999786376953,10.925999641418457 C-9.173999786376953,10.925999641418457 -9.184000015258789,10.9399995803833 -9.184000015258789,10.9399995803833z"></path></g><g opacity="1" transform="matrix(1,0,0,1,560.8670043945312,232.5050048828125)"><path fill="rgb(253,254,254)" fill-opacity="1" d=" M-1.1030000448226929,-8.680000305175781 C-1.1030000448226929,-8.680000305175781 -1.1790000200271606,-8.581000328063965 -1.1790000200271606,-8.581000328063965 C-1.1790000200271606,-8.581000328063965 -0.6079999804496765,-4.23799991607666 -0.6079999804496765,-4.23799991607666 C-0.6079999804496765,-4.23799991607666 1.090999960899353,8.680000305175781 1.090999960899353,8.680000305175781 C1.090999960899353,8.680000305175781 1.1790000200271606,8.680000305175781 1.1790000200271606,8.680000305175781 C1.1790000200271606,8.680000305175781 -0.5199999809265137,-4.23799991607666 -0.5199999809265137,-4.23799991607666 C-0.5199999809265137,-4.23799991607666 -1.1030000448226929,-8.680000305175781 -1.1030000448226929,-8.680000305175781z"></path></g><g opacity="1" transform="matrix(1,0,0,1,575.7219848632812,275.9630126953125)"><path fill="rgb(253,254,254)" fill-opacity="1" d=" M1.840999960899353,-11.305000305175781 C-2.4660000801086426,-10.701000213623047 -6.447999954223633,-3.61899995803833 -5.01800012588501,6.580999851226807 C-4.520999908447266,10.128000259399414 -2.8889999389648438,11.642999649047852 -0.5440000295639038,11.3149995803833 C3.9539999961853027,10.684000015258789 5.980000019073486,0.7110000252723694 6.295000076293945,-5.791999816894531 C6.295000076293945,-5.791999816894531 6.447999954223633,-8.85099983215332 6.447999954223633,-8.85099983215332 C5.701000213623047,-10.038000106811523 4.249000072479248,-11.642999649047852 1.840999960899353,-11.305000305175781z"></path></g><g opacity="1" transform="matrix(1,0,0,1,639.7360229492188,267.67498779296875)"><path fill="rgb(253,254,254)" fill-opacity="1" d=" M2.805999994277954,-3.986999988555908 C2.503999948501587,-6.139999866485596 3.4049999713897705,-8.01099967956543 5.433000087738037,-8.748000144958496 C4.671999931335449,-11.869999885559082 2.9760000705718994,-13.376999855041504 0.6320000290870667,-13.04800033569336 C-2.5360000133514404,-12.604000091552734 -5.377999782562256,-8.911999702453613 -5.828000068664551,0.7770000100135803 C-5.914000034332275,2.4690001010894775 -5.705999851226807,5.796999931335449 -5.482999801635742,7.38100004196167 C-4.922999858856201,11.373000144958496 -3.0929999351501465,13.376999855041504 -0.4309999942779541,13.003999710083008 C2.989000082015991,12.524999618530273 5.333000183105469,8.513999938964844 5.914000034332275,0.6809999942779541 C4.160999774932861,-0.3009999990463257 3.0989999771118164,-1.8949999809265137 2.805999994277954,-3.986999988555908z"></path></g><g opacity="1" transform="matrix(1,0,0,1,575.7039794921875,303.1719970703125)"><path fill="rgb(253,254,254)" fill-opacity="1" d=" M-2.506999969482422,-1.468999981880188 C-4.642000198364258,1.284000039100647 -5.605999946594238,3.615999937057495 -5.295000076293945,5.834000110626221 C-5.064000129699707,7.480000019073486 -3.946000099182129,8.550999641418457 -1.9819999933242798,8.274999618530273 C2.4519999027252197,7.6529998779296875 5.127999782562256,1.8519999980926514 5.60699987411499,-8.550999641418457 C1.7280000448226929,-5.810999870300293 -0.9279999732971191,-3.565000057220459 -2.506999969482422,-1.468999981880188z"></path></g><g opacity="1" transform="matrix(1,0,0,1,710.343017578125,258.0710144042969)"><path fill="rgb(253,254,254)" fill-opacity="1" d=" M3.0920000076293945,-4.321000099182129 C2.7990000247955322,-6.4120001792907715 3.690999984741211,-8.345000267028809 5.65500020980835,-9.074000358581543 C4.9730000495910645,-11.175000190734863 3.76200008392334,-11.972999572753906 2.115000009536743,-11.741999626159668 C0.2150000035762787,-11.475000381469727 -1.399999976158142,-9.633999824523926 -3.075000047683716,-5.9120001792907715 C-4.448999881744385,-2.812000036239624 -5.697999954223633,1.1740000247955322 -6.031000137329102,7.099999904632568 C-6.031000137329102,7.099999904632568 -6.13700008392334,9.569000244140625 -6.13700008392334,9.569000244140625 C-5.125999927520752,10.784000396728516 -3.4730000495910645,11.972999572753906 -0.9399999976158142,11.616999626159668 C2.5439999103546143,11.128999710083008 5.396999835968018,6.59499979019165 6.13700008392334,0.35600000619888306 C4.447000026702881,-0.6349999904632568 3.384999990463257,-2.2300000190734863 3.0920000076293945,-4.321000099182129z"></path></g><g opacity="1" transform="matrix(1,0,0,1,646.9190063476562,267.6780090332031)"><path fill="rgb(253,254,254)" fill-opacity="1" d=" M88.5719985961914,-68.9209976196289 C88.5719985961914,-68.9209976196289 76.83300018310547,-67.37799835205078 76.83300018310547,-67.37799835205078 C76.83300018310547,-67.37799835205078 -2.8410000801086426,-56.904998779296875 -2.8410000801086426,-56.904998779296875 C-2.8410000801086426,-56.904998779296875 -51.34600067138672,-50.52899932861328 -51.34600067138672,-50.52899932861328 C-51.34600067138672,-50.52899932861328 -82.89700317382812,-46.38199996948242 -82.89700317382812,-46.38199996948242 C-82.89700317382812,-46.38199996948242 -87.30000305175781,-45.803001403808594 -87.30000305175781,-45.803001403808594 C-87.30000305175781,-45.803001403808594 -87.26699829101562,-45.54600143432617 -87.26699829101562,-45.54600143432617 C-87.26699829101562,-45.54600143432617 -87.19100189208984,-45.64400100708008 -87.19100189208984,-45.64400100708008 C-87.19100189208984,-45.64400100708008 -86.60800170898438,-41.20199966430664 -86.60800170898438,-41.20199966430664 C-86.60800170898438,-41.20199966430664 -84.90899658203125,-28.28499984741211 -84.90899658203125,-28.28499984741211 C-84.90899658203125,-28.28499984741211 -84.78500366210938,-27.3439998626709 -84.78500366210938,-27.3439998626709 C-84.78500366210938,-27.3439998626709 -103.24199676513672,-24.91900062561035 -103.24199676513672,-24.91900062561035 C-103.24199676513672,-24.91900062561035 -103.23300170898438,-24.93199920654297 -103.23300170898438,-24.93199920654297 C-103.23300170898438,-24.93199920654297 -103.33000183105469,-24.91699981689453 -103.33000183105469,-24.91699981689453 C-103.33000183105469,-24.91699981689453 -103.33000183105469,-24.91900062561035 -103.33000183105469,-24.91900062561035 C-103.33000183105469,-24.91900062561035 -103.33100128173828,-24.91699981689453 -103.33100128173828,-24.91699981689453 C-103.33100128173828,-24.91699981689453 -99.95600128173828,0.7540000081062317 -99.95600128173828,0.7540000081062317 C-99.95600128173828,0.7540000081062317 -90.99600219726562,68.9209976196289 -90.99600219726562,68.9209976196289 C-90.99600219726562,68.9209976196289 92.2509994506836,44.83300018310547 92.2509994506836,44.83300018310547 C92.2509994506836,44.83300018310547 103.33200073242188,43.375999450683594 103.33200073242188,43.375999450683594 C103.33200073242188,43.375999450683594 88.5719985961914,-68.9209976196289 88.5719985961914,-68.9209976196289z M-28.246999740600586,-1.9359999895095825 C-29.895000457763672,-1.7050000429153442 -31.152000427246094,-1.9149999618530273 -31.152000427246094,-1.9149999618530273 C-31.152000427246094,-1.9149999618530273 -30.531999588012695,-3.489000082015991 -30.77199935913086,-5.198999881744385 C-30.89699935913086,-6.085999965667725 -31.347999572753906,-6.539000034332275 -32.29800033569336,-6.4070000648498535 C-33.3120002746582,-6.264999866485596 -34.59000015258789,-5.245999813079834 -36.27199935913086,-2.0380001068115234 C-38.20800018310547,1.656999945640564 -39.74800109863281,5.877999782562256 -40.016998291015625,15.02299976348877 C-40.125999450683594,18.850000381469727 -39.30699920654297,20.090999603271484 -39.30699920654297,20.090999603271484 C-39.30699920654297,20.090999603271484 -40.17599868774414,20.795000076293945 -42.520999908447266,21.124000549316406 C-47.39899826049805,21.80699920654297 -48.22700119018555,20.048999786376953 -48.0890007019043,15.508999824523926 C-48.0890007019043,15.508999824523926 -48.05099868774414,14.364999771118164 -48.05099868774414,14.364999771118164 C-48.09400177001953,14.407999992370605 -48.124000549316406,14.442999839782715 -48.167999267578125,14.487000465393066 C-50.26300048828125,16.589000701904297 -53.94499969482422,19.367000579833984 -57.42300033569336,21.72800064086914 C-57.42300033569336,21.72800064086914 -57.444000244140625,22.503999710083008 -57.444000244140625,22.503999710083008 C-57.854000091552734,37.54899978637695 -62.60100173950195,46.547000885009766 -71.97699737548828,47.86199951171875 C-76.28399658203125,48.46500015258789 -79.4540023803711,46.13199996948242 -80.00399780273438,42.20500183105469 C-80.52899932861328,38.465999603271484 -78.79000091552734,34.73500061035156 -76.05999755859375,31.63800048828125 C-73.33699798583984,28.479999542236328 -70.30999755859375,26.117000579833984 -65.47000122070312,22.854999542236328 C-65.47000122070312,22.854999542236328 -65.33999633789062,18.250999450683594 -65.33999633789062,18.250999450683594 C-67.322998046875,22.534000396728516 -70.20600128173828,25.003999710083008 -73.5009994506836,25.465999603271484 C-78.6969985961914,26.19499969482422 -83.302001953125,23.288000106811523 -84.34100341796875,15.87600040435791 C-86.3219985961914,1.7480000257492065 -79.01799774169922,-6.058000087738037 -71.60700225830078,-7.0960001945495605 C-68.43900299072266,-7.539999961853027 -66.04399871826172,-6.585000038146973 -64.3290023803711,-4.952000141143799 C-63.6349983215332,-7.374000072479248 -62.16699981689453,-8.418999671936035 -59.0620002746582,-8.854999542236328 C-56.909000396728516,-9.156999588012695 -55.80699920654297,-8.664999961853027 -55.80699920654297,-8.664999961853027 C-55.80699920654297,-8.664999961853027 -56.53300094604492,-7.4019999504089355 -56.624000549316406,-3.9010000228881836 C-56.624000549316406,-3.9010000228881836 -57.332000732421875,17.774999618530273 -57.332000732421875,17.774999618530273 C-57.332000732421875,17.774999618530273 -51.32500076293945,14.345999717712402 -47.935001373291016,10.756999969482422 C-47.935001373291016,10.756999969482422 -47.448001861572266,-4.3460001945495605 -47.448001861572266,-4.3460001945495605 C-47.31100082397461,-8.4350004196167 -48.14799880981445,-9.805000305175781 -48.14799880981445,-9.805000305175781 C-48.14799880981445,-9.805000305175781 -47.27899932861328,-10.508000373840332 -44.935001373291016,-10.836000442504883 C-40.055999755859375,-11.520999908447266 -39.20100021362305,-9.571999549865723 -39.36600112915039,-5.21999979019165 C-39.36600112915039,-5.21999979019165 -39.483001708984375,-2.36299991607666 -39.483001708984375,-2.36299991607666 C-36.38800048828125,-9.77299976348877 -32.452999114990234,-12.586000442504883 -29.60300064086914,-12.986000061035156 C-26.49799919128418,-13.420999526977539 -24.295000076293945,-11.986000061035156 -23.841999053955078,-8.755000114440918 C-23.344999313354492,-5.205999851226807 -25.143999099731445,-2.371000051498413 -28.246999740600586,-1.9359999895095825z M77.65699768066406,-8.642000198364258 C76.2959976196289,-0.37700000405311584 71.13500213623047,5.190999984741211 64.98799896240234,6.052000045776367 C61.946998596191406,6.479000091552734 59.244998931884766,5.630000114440918 57.20500183105469,3.9790000915527344 C57.20500183105469,3.9790000915527344 56.547000885009766,23.709999084472656 56.547000885009766,23.709999084472656 C56.40999984741211,27.797000885009766 57.24700164794922,29.165000915527344 57.24700164794922,29.165000915527344 C57.24700164794922,29.165000915527344 56.37699890136719,29.868999481201172 54.03300094604492,30.19700050354004 C49.154998779296875,30.8799991607666 48.327999114990234,29.124000549316406 48.465999603271484,24.58300018310547 C48.465999603271484,24.58300018310547 49.1609992980957,3.374000072479248 49.1609992980957,3.374000072479248 C47.479000091552734,6.190000057220459 44.625999450683594,8.906999588012695 40.85100173950195,9.435999870300293 C36.47999954223633,10.048999786376953 33.040000915527344,7.624000072479248 32.32899856567383,2.555999994277954 C32.249000549316406,1.9859999418258667 32.1510009765625,1.2899999618530273 32.09000015258789,0.3930000066757202 C31.45199966430664,2.2920000553131104 30.724000930786133,4.008999824523926 29.89699935913086,5.480999946594238 C27.742000579833984,9.46500015258789 25.202999114990234,11.628999710083008 21.7189998626709,12.118000030517578 C17.474000930786133,12.713000297546387 14.395999908447266,10.107999801635742 13.782999992370605,5.736999988555908 C13.454999923706055,3.3929998874664307 13.343999862670898,1.2130000591278076 13.45199966430664,-2.1610000133514404 C13.45199966430664,-2.1610000133514404 13.46399974822998,-2.5209999084472656 13.46399974822998,-2.5209999084472656 C11.942000389099121,-0.9490000009536743 9.696000099182129,0.5370000004768372 7.01800012588501,1.2599999904632568 C5.921000003814697,9.10099983215332 0.8119999766349792,15.048999786376953 -7.803999900817871,16.256999969482422 C-14.519000053405762,17.197999954223633 -20.05500030517578,13.64799976348877 -21.1560001373291,5.791999816894531 C-22.763999938964844,-5.675000190734863 -17.18600082397461,-14.72700023651123 -6.353000164031982,-16.246000289916992 C1.059000015258789,-17.28499984741211 5.988999843597412,-13.00100040435791 7.000999927520752,-5.7789998054504395 C7.196000099182129,-4.385000228881836 7.25600004196167,-3.0360000133514404 7.243000030517578,-1.7430000305175781 C10.524999618530273,-2.7039999961853027 12.640999794006348,-5.296999931335449 13.605999946594238,-6.744999885559082 C13.605999946594238,-6.744999885559082 13.814000129699707,-12.9350004196167 13.814000129699707,-12.9350004196167 C13.95199966430664,-17.024999618530273 13.11400032043457,-18.39299964904785 13.11400032043457,-18.39299964904785 C13.11400032043457,-18.39299964904785 13.984000205993652,-19.09600067138672 16.327999114990234,-19.423999786376953 C21.20599937438965,-20.108999252319336 22.034000396728516,-18.35099983215332 21.895000457763672,-13.809000015258789 C21.895000457763672,-13.809000015258789 21.413000106811523,1.180999994277954 21.413000106811523,1.180999994277954 C21.285999298095703,4.88100004196167 22.402999877929688,6.4029998779296875 24.240999221801758,6.144999980926514 C25.634000778198242,5.949999809265137 27.041000366210938,4.006999969482422 28.33300018310547,1.24399995803833 C30.479000091552734,-3.256999969482422 32.255001068115234,-10.416999816894531 32.41400146484375,-16.18899917602539 C32.49599838256836,-19.753000259399414 31.73900032043457,-21.003000259399414 31.73900032043457,-21.003000259399414 C31.73900032043457,-21.003000259399414 32.61000061035156,-21.707000732421875 34.95399856567383,-22.035999298095703 C39.832000732421875,-22.7189998626709 40.65999984741211,-20.961999893188477 40.52000045776367,-16.420000076293945 C40.52000045776367,-16.420000076293945 40.055999755859375,-1.7569999694824219 40.055999755859375,-1.7569999694824219 C39.957000732421875,2.132999897003174 41.28200149536133,3.75600004196167 43.5620002746582,3.436000108718872 C45.67499923706055,3.140000104904175 48.16699981689453,0.7319999933242798 49.36399841308594,-2.802999973297119 C49.36399841308594,-2.802999973297119 49.86199951171875,-17.98900032043457 49.86199951171875,-17.98900032043457 C50,-22.077999114990234 49.1609992980957,-23.44499969482422 49.1609992980957,-23.44499969482422 C49.1609992980957,-23.44499969482422 50.03200149536133,-24.149999618530273 52.375999450683594,-24.47800064086914 C57.255001068115234,-25.16200065612793 58.073001861572266,-23.468000411987305 57.94300079345703,-18.863000869750977 C57.94300079345703,-18.863000869750977 57.91299819946289,-17.69700050354004 57.91299819946289,-17.69700050354004 C59.89799880981445,-22.884000778198242 63.08300018310547,-25.979000091552734 67.072998046875,-26.538000106811523 C72.96499633789062,-27.364999771118164 76.78199768066406,-23.63599967956543 77.70600128173828,-17.04599952697754 C77.97200012207031,-15.145999908447266 78.03099822998047,-13.345999717712402 77.94499969482422,-11.654999732971191 C82.74400329589844,-12.90999984741211 85.10800170898438,-17.697999954223633 85.10800170898438,-17.697999954223633 C85.93099975585938,-17.812999725341797 86.46399688720703,-17.239999771118164 86.47000122070312,-16.273000717163086 C86.4010009765625,-14.00100040435791 82.78099822998047,-9.876999855041504 77.65699768066406,-8.642000198364258z"></path></g></g></g></svg>
